<svg width="729" height="569" viewBox="0 0 729 569" fill="none" xmlns="http://www.w3.org/2000/svg">
<g clip-path="url(#clip0)" filter="url(#filter0_d)">
<path opacity="0.1" d="M61.3828 287.755C84.6089 317.287 75.5856 360.423 60.8291 394.979C55.8842 406.549 50.3008 418.785 52.3595 431.189C54.9069 446.356 68.4451 457.451 82.6609 463.328C108.571 474.045 139.583 471.491 163.395 456.676C183.969 443.874 198.706 423.059 219.633 410.843C254.657 390.399 299.233 398.119 337.261 412.205C364.169 422.166 393.584 435.124 420.315 424.713C439.124 417.384 452.128 399.552 459.216 380.646C462.637 371.525 465.119 361.641 471.653 354.403C475.562 350.103 480.605 347.048 485.797 344.474C533.207 320.968 593.08 333.555 639.128 307.489C670.225 289.898 690.135 256.671 698.949 222.038C707.764 187.404 706.767 151.089 704.5 115.426C702.91 90.0758 700.057 63.0189 683.861 43.4543C666.726 22.7626 637.324 15.0618 610.749 18.9969C584.174 22.932 560.082 36.9523 538.888 53.4614C512.405 74.101 487.837 99.7962 455.32 108.188C433.169 113.882 409.878 110.794 387.036 109.686C348.852 107.881 310.654 111.895 272.678 116.279C236.324 120.481 199.71 125.107 165.076 136.932C140.573 145.271 120.937 160.464 97.7953 171.051C82.713 177.97 66.2626 179.879 51.9752 188.694C34.3846 199.548 18.2534 218.428 22.7618 240.521C27.0487 261.545 49.0564 272.079 61.3828 287.755Z" fill="#09B2FB"/>
<path d="M145.642 416.856C145.642 416.856 143.492 353.165 109.034 317.176C94.5709 302.075 85.072 282.894 82.5572 262.137C81.3817 252.287 81.1113 242.349 81.7494 232.448" stroke="#535461" stroke-width="1.303" stroke-miterlimit="10"/>
<path d="M60.1653 209.659C62.5237 216.773 82.2382 233.113 82.2382 233.113C82.2382 233.113 88.2776 208.219 85.9192 201.111C84.7865 197.696 82.3436 194.871 79.1278 193.257C75.9121 191.643 72.1868 191.372 68.7716 192.505C65.3565 193.637 62.5311 196.08 60.9171 199.296C59.3031 202.512 59.0327 206.237 60.1653 209.652V209.659Z" fill="#09B2FB"/>
<path d="M51.9693 256.105C57.8329 260.795 83.2414 263.805 83.2414 263.805C83.2414 263.805 74.7719 239.628 68.9084 234.944C66.0876 232.87 62.5745 231.968 59.1037 232.425C55.6329 232.882 52.4732 234.663 50.2855 237.396C48.0977 240.129 47.0514 243.602 47.3652 247.089C47.679 250.576 49.3287 253.806 51.9693 256.105Z" fill="#09B2FB"/>
<path d="M75.1948 323.112C82.6089 324.206 106.083 313.99 106.083 313.99C106.083 313.99 86.5766 297.39 79.1625 296.296C75.603 295.77 71.9803 296.679 69.0914 298.824C66.2024 300.969 64.2838 304.173 63.7577 307.733C63.2316 311.292 64.141 314.915 66.2858 317.804C68.4307 320.693 71.6354 322.611 75.1948 323.138V323.112Z" fill="#09B2FB"/>
<path d="M104.2 369.85C111.321 372.183 136.189 366.059 136.189 366.059C136.189 366.059 119.764 346.403 112.643 344.07C109.225 342.947 105.5 343.228 102.288 344.851C99.0769 346.474 96.6418 349.307 95.5186 352.726C94.3955 356.144 94.6764 359.869 96.2996 363.08C97.9228 366.292 100.755 368.727 104.174 369.85H104.2Z" fill="#09B2FB"/>
<path d="M110.715 256.215C107.256 262.861 85.196 275.878 85.196 275.878C85.196 275.878 83.1893 250.345 86.6488 243.693C87.471 242.113 88.5964 240.71 89.9607 239.565C91.3251 238.42 92.9016 237.554 94.6004 237.018C96.2992 236.482 98.0869 236.286 99.8615 236.441C101.636 236.596 103.363 237.099 104.943 237.921C106.523 238.743 107.926 239.869 109.071 241.233C110.217 242.597 111.082 244.174 111.618 245.873C112.154 247.571 112.35 249.359 112.195 251.134C112.04 252.908 111.537 254.635 110.715 256.215Z" fill="#09B2FB"/>
<path d="M143.948 311.306C138.658 316.616 113.719 322.427 113.719 322.427C113.719 322.427 119.445 297.462 124.729 292.152C125.986 290.89 127.48 289.888 129.124 289.203C130.769 288.519 132.532 288.164 134.313 288.161C136.095 288.158 137.859 288.505 139.506 289.184C141.153 289.863 142.651 290.859 143.913 292.116C145.175 293.374 146.177 294.867 146.861 296.512C147.546 298.156 147.9 299.919 147.904 301.701C147.907 303.482 147.559 305.247 146.881 306.894C146.202 308.541 145.206 310.038 143.948 311.3V311.306Z" fill="#09B2FB"/>
<path d="M168.901 369.283C164.588 375.408 140.984 385.356 140.984 385.356C140.984 385.356 142.404 359.785 146.724 353.654C147.723 352.134 149.018 350.831 150.531 349.821C152.044 348.812 153.745 348.118 155.532 347.779C157.32 347.44 159.157 347.465 160.934 347.85C162.712 348.236 164.394 348.976 165.88 350.025C167.366 351.074 168.626 352.411 169.584 353.956C170.543 355.502 171.181 357.225 171.461 359.022C171.74 360.82 171.655 362.655 171.211 364.419C170.767 366.183 169.972 367.839 168.875 369.29L168.901 369.283Z" fill="#09B2FB"/>
<path d="M448.447 373.609C448.447 373.609 438.101 370.104 433.123 379.219C431.81 381.69 431.142 384.453 431.181 387.251C431.22 390.049 431.964 392.792 433.345 395.226C436.602 401.135 443.352 408.81 456.148 408.126C466.976 407.546 470.546 399.285 471.536 391.597C471.911 388.715 471.539 385.785 470.457 383.087C469.375 380.39 467.618 378.015 465.355 376.191C463.092 374.367 460.399 373.154 457.533 372.669C454.667 372.184 451.725 372.443 448.988 373.42L448.447 373.609Z" fill="#09B2FB"/>
<path opacity="0.1" d="M435.534 396.047C434.153 393.613 433.409 390.87 433.37 388.072C433.331 385.274 433.999 382.511 435.313 380.04C440.29 370.919 450.636 374.43 450.636 374.43L451.164 374.241C455.109 372.814 459.444 372.912 463.321 374.515C461.182 373.241 458.786 372.458 456.308 372.221C453.829 371.985 451.329 372.301 448.988 373.147L448.46 373.336C448.46 373.336 438.114 369.831 433.137 378.945C431.823 381.416 431.155 384.179 431.194 386.977C431.233 389.776 431.977 392.519 433.358 394.953C435.515 398.862 439.17 403.494 445.085 406.028C441.048 403.638 437.745 400.185 435.534 396.047Z" fill="white"/>
<path opacity="0.2" d="M443.104 377.994C443.104 377.994 446.942 381.01 456.252 377.994H443.104Z" fill="black"/>
<path d="M442.284 356.077C442.284 356.077 448.858 373.883 448.311 378.541L453.523 377.994C453.523 377.994 444.753 362.358 446.949 356.077H442.284Z" fill="#09B2FB"/>
<path opacity="0.2" d="M442.284 356.077C442.284 356.077 448.858 373.883 448.311 378.541L453.523 377.994C453.523 377.994 444.753 362.358 446.949 356.077H442.284Z" fill="black"/>
<path d="M469.119 357.563C469.119 357.563 458.773 352.273 454.135 356.644C449.496 361.016 448.792 372.189 448.792 372.189C448.792 372.189 465.673 374.509 469.119 357.563Z" fill="#09B2FB"/>
<path opacity="0.1" d="M469.119 357.563C469.119 357.563 458.773 352.273 454.135 356.644C449.496 361.016 448.792 372.189 448.792 372.189C448.792 372.189 465.673 374.509 469.119 357.563Z" fill="white"/>
<path d="M448.799 372.189C448.799 372.189 451.516 359.218 469.12 357.563" stroke="#09B2FB" stroke-width="0.651502" stroke-miterlimit="10"/>
<path d="M151.408 294.569C151.408 294.569 153.519 260.131 136.795 238.97C129.723 230.14 125.706 219.253 125.348 207.945C125.222 202.574 125.588 197.203 126.442 191.899" stroke="#535461" stroke-width="1.303" stroke-miterlimit="10"/>
<path d="M115.986 178.504C116.891 182.459 126.677 192.283 126.677 192.283C126.677 192.283 131.237 179.175 130.306 175.227C130.092 174.286 129.695 173.396 129.137 172.608C128.579 171.821 127.872 171.151 127.055 170.637C126.238 170.122 125.328 169.774 124.377 169.611C123.426 169.449 122.452 169.475 121.511 169.689C120.569 169.903 119.68 170.3 118.892 170.858C118.104 171.416 117.434 172.123 116.92 172.94C116.406 173.757 116.058 174.667 115.895 175.618C115.732 176.569 115.759 177.543 115.973 178.485L115.986 178.504Z" fill="#09B2FB"/>
<path d="M109.171 203.118C112.083 205.945 125.634 208.877 125.634 208.877C125.634 208.877 122.318 195.411 119.406 192.59C118.714 191.918 117.897 191.388 117.001 191.032C116.104 190.676 115.147 190.5 114.182 190.514C113.218 190.528 112.266 190.731 111.38 191.113C110.495 191.495 109.693 192.048 109.021 192.739C108.349 193.431 107.82 194.248 107.464 195.145C107.107 196.041 106.931 196.999 106.945 197.963C106.959 198.927 107.163 199.879 107.545 200.765C107.927 201.651 108.479 202.452 109.171 203.124V203.118Z" fill="#09B2FB"/>
<path d="M118.259 240.429C122.168 241.4 135.374 237.087 135.374 237.087C135.374 237.087 125.712 227.139 121.777 226.168C120.841 225.937 119.868 225.893 118.915 226.038C117.961 226.183 117.045 226.514 116.22 227.013C114.553 228.02 113.354 229.648 112.888 231.54C112.421 233.431 112.725 235.43 113.732 237.097C114.74 238.764 116.368 239.963 118.259 240.429Z" fill="#09B2FB"/>
<path d="M131.492 267.102C135.212 268.724 148.926 266.698 148.926 266.698C148.926 266.698 141.108 255.258 137.368 253.668C136.481 253.259 135.521 253.032 134.544 252.999C133.568 252.966 132.595 253.129 131.682 253.477C130.769 253.825 129.935 254.352 129.228 255.026C128.521 255.701 127.956 256.509 127.566 257.405C127.176 258.301 126.968 259.265 126.956 260.242C126.943 261.219 127.125 262.189 127.492 263.094C127.859 264 128.403 264.823 129.092 265.515C129.781 266.208 130.601 266.756 131.505 267.128L131.492 267.102Z" fill="#09B2FB"/>
<path d="M140.84 206.199C138.638 209.607 126.077 215.483 126.077 215.483C126.077 215.483 126.305 201.619 128.514 198.212C129.573 196.577 131.238 195.431 133.143 195.024C135.048 194.617 137.036 194.983 138.671 196.043C140.305 197.102 141.452 198.767 141.859 200.672C142.266 202.576 141.899 204.565 140.84 206.199Z" fill="#09B2FB"/>
<path d="M155.923 237.595C152.802 240.201 139.056 242.039 139.056 242.039C139.056 242.039 143.421 228.878 146.548 226.285C148.048 225.042 149.98 224.446 151.92 224.627C153.859 224.808 155.647 225.753 156.891 227.253C158.134 228.753 158.73 230.685 158.549 232.624C158.367 234.564 157.423 236.352 155.923 237.595Z" fill="#09B2FB"/>
<path d="M166.393 270.125C163.754 273.206 150.522 277.357 150.522 277.357C150.522 277.357 152.6 263.675 155.245 260.567C155.873 259.835 156.639 259.233 157.5 258.797C158.36 258.361 159.298 258.098 160.26 258.024C161.222 257.951 162.189 258.067 163.106 258.367C164.023 258.667 164.872 259.144 165.604 259.772C166.337 260.4 166.938 261.167 167.374 262.027C167.811 262.887 168.073 263.825 168.147 264.787C168.221 265.749 168.104 266.716 167.805 267.633C167.505 268.55 167.027 269.399 166.399 270.131L166.393 270.125Z" fill="#09B2FB"/>
<path opacity="0.5" d="M115.986 178.504C116.891 182.459 126.677 192.283 126.677 192.283C126.677 192.283 131.237 179.175 130.306 175.227C130.092 174.286 129.695 173.396 129.137 172.608C128.579 171.821 127.872 171.151 127.055 170.637C126.238 170.122 125.328 169.774 124.377 169.611C123.426 169.449 122.452 169.475 121.511 169.689C120.569 169.903 119.68 170.3 118.892 170.858C118.104 171.416 117.434 172.123 116.92 172.94C116.406 173.757 116.058 174.667 115.895 175.618C115.732 176.569 115.759 177.543 115.973 178.485L115.986 178.504Z" fill="white"/>
<path opacity="0.5" d="M109.171 203.118C112.083 205.945 125.634 208.877 125.634 208.877C125.634 208.877 122.318 195.411 119.406 192.59C118.714 191.918 117.897 191.388 117.001 191.032C116.104 190.676 115.147 190.5 114.182 190.514C113.218 190.528 112.266 190.731 111.38 191.113C110.495 191.495 109.693 192.048 109.021 192.739C108.349 193.431 107.82 194.248 107.464 195.145C107.107 196.041 106.931 196.999 106.945 197.963C106.959 198.927 107.163 199.879 107.545 200.765C107.927 201.651 108.479 202.452 109.171 203.124V203.118Z" fill="white"/>
<path opacity="0.5" d="M118.259 240.429C122.168 241.4 135.374 237.087 135.374 237.087C135.374 237.087 125.712 227.139 121.777 226.168C120.841 225.937 119.868 225.893 118.915 226.038C117.961 226.183 117.045 226.514 116.22 227.013C114.553 228.02 113.354 229.648 112.888 231.54C112.421 233.431 112.725 235.43 113.732 237.097C114.74 238.764 116.368 239.963 118.259 240.429Z" fill="white"/>
<path opacity="0.5" d="M131.492 267.102C135.212 268.724 148.926 266.698 148.926 266.698C148.926 266.698 141.108 255.258 137.368 253.668C136.481 253.259 135.521 253.032 134.544 252.999C133.568 252.966 132.595 253.129 131.682 253.477C130.769 253.825 129.935 254.352 129.228 255.026C128.521 255.701 127.956 256.509 127.566 257.405C127.176 258.301 126.968 259.265 126.956 260.242C126.943 261.219 127.125 262.189 127.492 263.094C127.859 264 128.403 264.823 129.092 265.515C129.781 266.208 130.601 266.756 131.505 267.128L131.492 267.102Z" fill="white"/>
<path opacity="0.5" d="M140.84 206.199C138.638 209.607 126.077 215.483 126.077 215.483C126.077 215.483 126.305 201.619 128.514 198.212C129.573 196.577 131.238 195.431 133.143 195.024C135.048 194.617 137.036 194.983 138.671 196.043C140.305 197.102 141.452 198.767 141.859 200.672C142.266 202.576 141.899 204.565 140.84 206.199Z" fill="white"/>
<path opacity="0.5" d="M155.923 237.595C152.802 240.201 139.056 242.039 139.056 242.039C139.056 242.039 143.421 228.878 146.548 226.285C148.048 225.042 149.98 224.446 151.92 224.627C153.859 224.808 155.647 225.753 156.891 227.253C158.134 228.753 158.73 230.685 158.549 232.624C158.367 234.564 157.423 236.352 155.923 237.595Z" fill="white"/>
<path opacity="0.5" d="M166.393 270.125C163.754 273.206 150.522 277.357 150.522 277.357C150.522 277.357 152.6 263.675 155.245 260.567C155.873 259.835 156.639 259.233 157.5 258.797C158.36 258.361 159.298 258.098 160.26 258.024C161.222 257.951 162.189 258.067 163.106 258.367C164.023 258.667 164.872 259.144 165.604 259.772C166.337 260.4 166.938 261.167 167.374 262.027C167.811 262.887 168.073 263.825 168.147 264.787C168.221 265.749 168.104 266.716 167.805 267.633C167.505 268.55 167.027 269.399 166.399 270.131L166.393 270.125Z" fill="white"/>
<path d="M350.683 31.2841V42.5877V255.375H679.64V42.5877V31.2841H350.683Z" fill="url(#paint0_linear)"/>
<path d="M676.154 41.4475H355.563V251.316H676.154V41.4475Z" fill="white"/>
<path d="M676.154 31.4666H355.563V46.9072H676.154V31.4666Z" fill="#EEEEEE"/>
<path d="M367.758 42.6985C369.827 42.6985 371.504 41.0212 371.504 38.9523C371.504 36.8834 369.827 35.2062 367.758 35.2062C365.689 35.2062 364.012 36.8834 364.012 38.9523C364.012 41.0212 365.689 42.6985 367.758 42.6985Z" fill="#FF5252"/>
<path d="M378.059 42.6985C380.128 42.6985 381.805 41.0212 381.805 38.9523C381.805 36.8834 380.128 35.2062 378.059 35.2062C375.99 35.2062 374.313 36.8834 374.313 38.9523C374.313 41.0212 375.99 42.6985 378.059 42.6985Z" fill="#FFFF00"/>
<path d="M388.353 42.6985C390.422 42.6985 392.099 41.0212 392.099 38.9523C392.099 36.8834 390.422 35.2062 388.353 35.2062C386.284 35.2062 384.606 36.8834 384.606 38.9523C384.606 41.0212 386.284 42.6985 388.353 42.6985Z" fill="#69F0AE"/>
<path opacity="0.5" d="M487.316 71.6382H367.85V76.6157H487.316V71.6382Z" fill="#09B2FB"/>
<path opacity="0.5" d="M487.316 81.5931H367.85V86.5706H487.316V81.5931Z" fill="#09B2FB"/>
<path opacity="0.5" d="M487.316 91.5481H367.85V96.5256H487.316V91.5481Z" fill="#09B2FB"/>
<path opacity="0.5" d="M487.309 101.503H409.024V106.48H487.309V101.503Z" fill="#09B2FB"/>
<path opacity="0.5" d="M430.753 111.465H367.85V116.442H430.753V111.465Z" fill="#09B2FB"/>
<path opacity="0.5" d="M450.207 121.419H401.787V126.397H450.207V121.419Z" fill="#09B2FB"/>
<path opacity="0.5" d="M643.892 106.487H503.154V187.488H643.892V106.487Z" fill="#09B2FB"/>
<path d="M660.635 114.175H519.898V195.176H660.635V114.175Z" fill="#EEEEEE"/>
<path d="M598.639 195.156H519.898V180.341C539.137 171.351 568.735 166.301 598.639 195.156Z" fill="#09B2FB"/>
<g opacity="0.1">
<path opacity="0.1" d="M659.729 193.059V195.156H561.528V194.707C561.528 194.707 609.85 147.681 659.729 193.059Z" fill="black"/>
</g>
<path d="M660.635 193.059V195.156H562.434V194.707C562.434 194.707 610.756 147.681 660.635 193.059Z" fill="#09B2FB"/>
<path d="M536.191 135.896C540.189 135.896 543.429 132.655 543.429 128.658C543.429 124.66 540.189 121.419 536.191 121.419C532.194 121.419 528.953 124.66 528.953 128.658C528.953 132.655 532.194 135.896 536.191 135.896Z" fill="#09B2FB"/>
<path d="M597.83 123.172C597.003 123.172 596.077 123.172 595.452 123.224C595.169 123.24 594.891 123.297 594.625 123.394L590.364 124.925C593.804 125.009 597.393 124.983 600.912 124.925L620.678 124.775C622.691 124.775 624.815 124.742 626.496 124.618C627.623 124.54 628.451 124.416 629.486 124.325C633.226 123.993 638.686 124.058 643.559 124.071C648.432 124.084 654.315 123.96 656.029 123.472H645.572C644.445 123.472 643.259 123.472 642.262 123.413C641.096 123.348 640.386 123.218 639.363 123.126C637.669 122.983 635.337 122.964 633.161 122.957C621.251 122.951 609.479 123.237 597.83 123.172Z" fill="#F4F4F4"/>
<path d="M609.564 131.961C609.382 131.961 609.186 131.961 609.049 131.961C608.989 131.966 608.93 131.979 608.873 132L607.948 132.332C608.691 132.332 609.473 132.332 610.235 132.332L614.515 132.3C614.952 132.3 615.408 132.3 615.773 132.267L616.424 132.202C617.232 132.13 618.418 132.143 619.473 132.15C620.377 132.18 621.281 132.136 622.177 132.019H619.91C619.662 132.019 619.408 132.019 619.193 132.019C618.978 132.019 618.789 131.974 618.542 131.961C618.177 131.961 617.669 131.928 617.2 131.922C614.633 131.909 612.085 131.961 609.564 131.961Z" fill="#F4F4F4"/>
<path d="M579.243 144.626C579.06 144.626 578.865 144.626 578.728 144.626C578.668 144.631 578.609 144.644 578.552 144.665L577.627 144.997C578.37 144.997 579.151 144.997 579.914 144.997L584.194 144.965C584.631 144.965 585.087 144.965 585.451 144.932L586.103 144.867C586.911 144.795 588.097 144.808 589.152 144.815C590.055 144.845 590.96 144.801 591.856 144.685H589.589C589.341 144.685 589.087 144.685 588.872 144.685C588.657 144.685 588.468 144.639 588.22 144.626C587.856 144.626 587.347 144.593 586.878 144.587C584.318 144.58 581.764 144.639 579.243 144.626Z" fill="#F4F4F4"/>
<path d="M562.213 191.163H558.838C558.838 191.163 557.776 153.949 562.239 142.463H563.092C563.092 142.463 560.089 184.576 562.213 191.163Z" fill="#09B2FB"/>
<path d="M559.874 140.554C559.874 140.554 557.111 148.209 558.388 151.63C558.388 151.63 560.304 144.613 562.538 143.551C564.773 142.489 567.099 151.63 567.099 151.63C567.099 151.63 568.402 145.89 566.037 141.206C569.029 142.977 571.461 145.555 573.054 148.646C573.054 148.646 573.477 145.453 567.952 138.873C567.952 138.873 572.845 140.176 576.031 143.127C576.031 143.127 577.093 140.789 570.5 136.958C570.5 136.958 571.353 134.195 576.454 135.472C576.454 135.472 576.454 131.857 568.376 132.495C568.376 132.495 568.376 130.156 573.692 130.58C573.692 130.58 573.692 127.602 567.522 128.664C567.522 128.664 568.825 126.749 569.646 126.325C568.582 126.227 567.52 126.532 566.669 127.179C566.669 127.179 566.884 123.348 563.692 121.862L563.268 127.179C563.268 127.179 559.691 122.963 560.506 123.778C561.019 125.06 561.242 126.439 561.157 127.817C561.157 127.817 557.541 124.84 553.079 128.032C553.079 128.032 558.61 128.456 559.457 130.371C559.457 130.371 554.779 129.518 553.717 130.156C553.717 130.156 557.333 131.459 557.118 132.28C557.118 132.28 550.74 132.28 549.886 134.619C549.886 134.619 556.479 135.472 556.903 136.104C556.903 136.104 549.248 141.636 548.824 143.121C548.824 143.121 556.694 138.443 557.945 138.443C559.196 138.443 552.205 145.251 552.629 146.952C552.649 146.945 558.388 140.124 559.874 140.554Z" fill="#09B2FB"/>
<path d="M604.189 189.775H606.795C606.795 189.775 607.609 161.343 604.189 152.568H603.537C603.537 152.568 605.811 184.732 604.189 189.775Z" fill="#09B2FB"/>
<path d="M605.974 151.102C605.974 151.102 608.085 156.965 607.114 159.571C607.114 159.571 605.655 154.21 603.948 153.395C602.241 152.581 600.456 159.571 600.456 159.571C600.456 159.571 599.478 155.187 601.27 151.61C598.983 152.964 597.125 154.935 595.908 157.298C595.908 157.298 595.583 154.861 599.817 149.825C599.817 149.825 596.078 150.802 593.641 153.082C593.641 153.082 592.827 151.297 597.863 148.372C597.863 148.372 597.211 146.261 593.302 147.232C593.302 147.232 593.302 144.47 599.478 144.958C599.478 144.958 599.478 143.173 595.42 143.499C595.42 143.499 595.42 141.225 600.13 142.039C599.694 141.357 599.145 140.753 598.508 140.254C599.321 140.179 600.132 140.411 600.781 140.906C600.781 140.906 600.619 137.981 603.055 136.847L603.381 140.906C603.381 140.906 606.111 137.687 605.492 138.3C605.102 139.28 604.936 140.335 605.003 141.388C605.003 141.388 607.766 139.114 611.179 141.551C611.179 141.551 606.958 141.877 606.306 143.336C606.306 143.336 609.883 142.684 610.691 143.173C610.691 143.173 607.928 144.15 608.085 144.795C608.085 144.795 612.958 144.795 613.61 146.58C613.61 146.58 608.573 147.232 608.248 147.721C608.248 147.721 614.111 151.942 614.424 153.082C614.424 153.082 608.411 149.506 607.44 149.506C606.469 149.506 611.824 154.718 611.499 156.021C611.499 155.975 607.114 150.776 605.974 151.102Z" fill="#09B2FB"/>
<path d="M635.292 184.218H636.901C636.901 184.218 637.402 166.627 635.292 161.174H634.888C634.888 161.174 636.295 181.097 635.292 184.218Z" fill="#09B2FB"/>
<path d="M636.366 160.269C636.366 160.269 637.669 163.891 637.07 165.481C637.07 165.481 636.164 162.158 635.115 161.656C634.066 161.155 632.952 165.481 632.952 165.481C632.62 163.824 632.795 162.105 633.454 160.549C632.037 161.387 630.885 162.609 630.131 164.073C630.131 164.073 629.929 162.562 632.548 159.448C631.145 159.838 629.841 160.525 628.724 161.461C628.724 161.461 628.222 160.353 631.33 158.542C631.33 158.542 630.926 157.239 628.516 157.838C628.516 157.838 628.516 156.125 632.34 156.431C632.34 156.431 632.34 155.324 629.825 155.526C629.825 155.526 629.825 154.118 632.744 154.62C632.475 154.197 632.135 153.822 631.741 153.512C632.244 153.467 632.745 153.611 633.148 153.916C633.124 153.408 633.243 152.902 633.492 152.458C633.74 152.013 634.109 151.647 634.555 151.402L634.757 153.916C634.757 153.916 636.451 151.923 636.06 152.307C635.82 152.914 635.718 153.565 635.76 154.216C636.319 153.808 636.997 153.596 637.689 153.614C638.381 153.631 639.047 153.878 639.585 154.314C639.585 154.314 636.979 154.516 636.568 155.421C636.568 155.421 638.783 155.017 639.285 155.324C639.285 155.324 637.572 155.93 637.676 156.327C637.676 156.327 640.692 156.327 641.096 157.435C641.096 157.435 637.975 157.838 637.773 158.138C637.773 158.138 641.396 160.744 641.598 161.461C641.598 161.461 637.878 159.246 637.272 159.246C636.666 159.246 639.989 162.464 639.787 163.272C639.819 163.285 637.102 160.067 636.366 160.269Z" fill="#09B2FB"/>
<path d="M576.428 164.308L576.089 162.497C576.089 162.364 576.061 162.232 576.009 162.11C575.956 161.988 575.879 161.878 575.783 161.787L574.213 161.018C574.096 160.877 574.001 160.719 573.933 160.549V160.51C574.02 160.401 574.083 160.274 574.115 160.138C574.118 160.104 574.118 160.069 574.115 160.034C574.263 160.055 574.414 160.018 574.535 159.93C574.657 159.843 574.74 159.712 574.767 159.565V159.526C574.736 159.645 574.669 159.752 574.574 159.83C574.479 159.909 574.362 159.955 574.239 159.962C574.454 159.818 574.63 159.625 574.754 159.398C574.878 159.171 574.944 158.918 574.949 158.659C574.949 158.659 574.949 158.614 574.949 158.594C575.019 158.551 575.078 158.495 575.124 158.427C575.17 158.36 575.202 158.284 575.216 158.203V158.164C575.197 158.241 575.162 158.313 575.114 158.376C575.066 158.438 575.005 158.491 574.936 158.529C574.924 158.38 574.891 158.233 574.838 158.092H574.877C575.031 158.092 575.179 158.031 575.287 157.923C575.396 157.814 575.457 157.666 575.457 157.513C575.457 157.513 575.457 157.513 575.457 157.474C575.447 157.62 575.382 157.758 575.274 157.859C575.166 157.959 575.025 158.015 574.877 158.014H574.806C574.976 157.96 575.128 157.858 575.243 157.721C575.359 157.583 575.433 157.416 575.457 157.239C575.457 157.239 575.457 157.239 575.457 157.2C575.45 157.313 575.409 157.422 575.34 157.513C575.351 157.437 575.347 157.36 575.328 157.286C575.31 157.211 575.277 157.142 575.231 157.08C575.185 157.019 575.128 156.967 575.062 156.928C574.997 156.888 574.924 156.863 574.848 156.851C574.772 156.84 574.695 156.844 574.621 156.863C574.547 156.882 574.477 156.915 574.416 156.96C574.354 157.006 574.302 157.063 574.263 157.129C574.224 157.195 574.198 157.268 574.187 157.343L574.083 157.285C574.115 157.168 574.184 157.064 574.278 156.988C574.373 156.912 574.489 156.868 574.61 156.861H574.571C574.448 156.859 574.328 156.895 574.227 156.965C574.127 157.036 574.051 157.136 574.011 157.252C573.661 157.089 573.264 157.058 572.893 157.165C572.522 157.271 572.202 157.508 571.991 157.832C571.867 157.923 571.711 158.053 571.718 158.164C571.667 158.216 571.621 158.273 571.581 158.334C571.409 158.71 571.346 159.128 571.398 159.539C571.421 159.743 571.395 159.95 571.323 160.143C571.25 160.335 571.133 160.508 570.981 160.646C571.049 160.675 571.123 160.69 571.196 160.69C571.27 160.69 571.343 160.675 571.411 160.646C571.547 160.59 571.674 160.515 571.789 160.425C571.896 160.361 571.987 160.274 572.056 160.171C572.132 160.22 572.213 160.262 572.297 160.295C572.33 160.568 572.337 160.881 572.219 160.979V160.927C571.927 161.148 571.562 161.253 571.196 161.22C570.98 161.232 570.77 161.298 570.586 161.412C570.402 161.526 570.249 161.683 570.141 161.871L569.652 163.963V163.995V164.028C569.659 164.056 569.673 164.082 569.694 164.103C569.715 164.124 569.741 164.138 569.77 164.145L569.919 164.184C569.97 164.517 569.968 164.855 569.913 165.187C569.81 165.694 569.751 166.208 569.737 166.725C569.776 166.985 569.841 168.328 569.867 168.966C569.813 169.181 569.77 169.398 569.737 169.618L569.007 173.989C569.007 173.989 568.467 177.488 568.493 178.55L568.395 179.162C568.395 179.162 566.916 181.019 567.353 181.279C567.789 181.54 568.454 181.657 569.092 180.667C569.177 180.434 569.316 180.225 569.496 180.055C569.568 179.992 569.623 179.913 569.658 179.825C569.693 179.737 569.707 179.641 569.698 179.546L569.652 179.116H569.731H569.776C570.178 177.797 570.397 176.43 570.428 175.051C570.428 175.051 571.776 170.243 572.806 169.487L572.903 169.442L573.125 174.093L572.903 179.227L572.858 179.533C572.858 179.533 571.379 181.39 571.815 181.651C572.252 181.911 572.916 182.029 573.555 181.038C573.64 180.806 573.778 180.596 573.959 180.426C574.03 180.363 574.086 180.285 574.121 180.196C574.156 180.108 574.17 180.012 574.161 179.918L574.096 179.266C574.35 178.406 575.008 175.911 574.747 174.471L575.197 171.403C575.653 170.895 575.588 169.598 575.588 169.598C575.946 168.855 576.024 165.924 576.024 165.924L576.115 164.477H576.317H576.389L576.421 164.438V164.406L576.428 164.308ZM575.164 167.246C575.125 167.148 575.079 167.044 575.027 166.946H574.988V166.907V166.875V166.836C575.009 166.787 575.026 166.737 575.04 166.686C575.098 166.592 575.128 166.483 575.125 166.373C575.19 166.659 575.212 166.953 575.19 167.246H575.164ZM575.027 166.008L574.936 165.038V164.959L575.06 166.191L575.027 166.008ZM570.734 166.139C570.704 166.174 570.681 166.216 570.667 166.261C570.654 166.306 570.65 166.353 570.656 166.399C570.655 166.498 570.669 166.597 570.695 166.692L570.551 167.298V166.139C570.643 166.016 570.724 165.885 570.792 165.748C570.824 165.878 570.815 166.014 570.766 166.139H570.734Z" fill="url(#paint1_linear)"/>
<path d="M571.678 158.672C571.513 159.035 571.452 159.437 571.503 159.832C571.527 160.029 571.502 160.23 571.432 160.416C571.362 160.602 571.247 160.768 571.099 160.9C571.164 160.928 571.233 160.941 571.304 160.941C571.374 160.941 571.444 160.928 571.509 160.9C571.64 160.846 571.763 160.773 571.874 160.685C571.976 160.623 572.063 160.538 572.128 160.438C572.191 160.281 572.211 160.11 572.187 159.943C572.188 159.648 572.214 159.354 572.265 159.063C572.265 158.881 572.467 158.412 572.265 158.294C572.063 158.177 571.77 158.529 571.678 158.672Z" fill="#72351C"/>
<path d="M568.688 177.898L568.552 178.791C568.552 178.791 567.125 180.582 567.548 180.83C567.972 181.078 568.61 181.195 569.223 180.244C569.306 180.02 569.44 179.82 569.614 179.657C569.682 179.597 569.736 179.521 569.77 179.436C569.804 179.351 569.817 179.26 569.809 179.169L569.672 177.787L568.688 177.898Z" fill="#333333"/>
<path d="M572.982 178.256L572.846 179.149C572.846 179.149 571.419 180.941 571.842 181.188C572.266 181.436 572.904 181.553 573.517 180.602C573.6 180.379 573.734 180.178 573.907 180.016C573.976 179.955 574.03 179.88 574.064 179.795C574.098 179.71 574.111 179.618 574.103 179.527L573.966 178.146L572.982 178.256Z" fill="#333333"/>
<path d="M570.76 167.435C570.76 167.435 570.109 167.917 569.842 169.605L569.138 173.813C568.883 175.322 568.722 176.845 568.656 178.374L569.842 178.778C570.236 177.511 570.455 176.195 570.493 174.869C570.493 174.869 571.92 169.794 572.917 169.435L573.125 173.918L572.904 178.973L573.92 179.175C573.92 179.175 574.949 175.963 574.624 174.263L575.151 170.647C575.492 169.455 575.41 168.182 574.917 167.044L570.76 167.435Z" fill="#4D8AF0"/>
<g opacity="0.1">
<path opacity="0.1" d="M572.799 169.5V169.422C571.802 169.78 570.376 174.856 570.376 174.856C570.351 176.168 570.144 177.47 569.763 178.726L569.893 178.771C570.288 177.504 570.507 176.189 570.545 174.862C570.545 174.862 571.809 170.23 572.799 169.5Z" fill="black"/>
<path opacity="0.1" d="M574.937 167.031H574.8C575.287 168.166 575.367 169.434 575.028 170.621L574.5 174.237C574.813 175.846 573.901 178.797 573.81 179.123H573.94C573.94 179.123 574.969 175.911 574.644 174.211L575.171 170.595C575.503 169.415 575.42 168.157 574.937 167.031Z" fill="black"/>
</g>
<path d="M569.848 164.138C569.847 164.173 569.859 164.207 569.88 164.234C569.901 164.262 569.932 164.281 569.965 164.288C570.292 164.366 570.599 164.512 570.865 164.718C571.366 165.109 570.337 163.936 570.337 163.936L569.991 164.015L569.848 164.138Z" fill="#F55F44"/>
<path opacity="0.1" d="M569.848 164.138C569.847 164.173 569.859 164.207 569.88 164.234C569.901 164.262 569.932 164.281 569.965 164.288C570.292 164.366 570.599 164.512 570.865 164.718C571.366 165.109 570.337 163.936 570.337 163.936L569.991 164.015L569.848 164.138Z" fill="black"/>
<path d="M574.748 165.187C575.166 164.888 575.651 164.695 576.161 164.627C576.196 164.627 576.229 164.613 576.253 164.589C576.278 164.564 576.292 164.531 576.292 164.497C576.146 164.43 575.988 164.396 575.828 164.395C575.668 164.394 575.51 164.428 575.364 164.493C575.218 164.559 575.087 164.654 574.981 164.774C574.875 164.894 574.795 165.035 574.748 165.187Z" fill="#F55F44"/>
<path opacity="0.1" d="M576.292 164.477C576.146 164.411 575.988 164.376 575.828 164.376C575.668 164.375 575.51 164.408 575.364 164.474C575.218 164.539 575.087 164.635 574.981 164.754C574.875 164.874 574.795 165.015 574.748 165.168C574.748 165.168 575.621 164.516 576.226 164.608" fill="black"/>
<path d="M573.373 160.568C574.225 160.568 574.917 159.877 574.917 159.024C574.917 158.171 574.225 157.48 573.373 157.48C572.52 157.48 571.829 158.171 571.829 159.024C571.829 159.877 572.52 160.568 573.373 160.568Z" fill="#72351C"/>
<path d="M572.304 160.106C572.304 160.106 572.525 161.011 572.304 161.2C572.082 161.389 571.652 161.728 571.978 161.995C572.304 162.262 573.49 162.712 573.881 162.497C574.271 162.282 574.721 162.34 574.617 161.891C574.512 161.441 573.653 161.532 573.633 159.285L572.304 160.106Z" fill="#FDB797"/>
<path opacity="0.1" d="M570.122 163.884C570.155 164.375 570.125 164.868 570.031 165.35C569.932 165.837 569.875 166.332 569.861 166.829C569.907 167.155 570.005 169.311 570.005 169.311C570.005 169.311 569.835 171.201 570.754 171.025C571.673 170.849 570.611 168.875 570.611 168.875L570.656 166.269C570.911 165.932 571.073 165.535 571.125 165.116C571.164 164.536 570.122 163.884 570.122 163.884Z" fill="black"/>
<path d="M570.102 163.884C570.136 164.375 570.105 164.868 570.011 165.35C569.912 165.837 569.855 166.332 569.842 166.829C569.887 167.155 569.985 169.311 569.985 169.311C569.985 169.311 569.816 171.201 570.734 171.025C571.653 170.849 570.591 168.875 570.591 168.875L570.637 166.269C570.892 165.932 571.053 165.535 571.106 165.116C571.151 164.536 570.102 163.884 570.102 163.884Z" fill="#FDB797"/>
<path opacity="0.1" d="M575.985 164.008L575.861 166.021C575.861 166.021 575.783 168.842 575.438 169.559C575.438 169.559 575.529 171.513 574.611 171.513C573.692 171.513 574.767 169.344 574.767 169.344C574.767 169.344 575.262 167.142 575.008 166.438L574.767 164.021L575.985 164.008Z" fill="black"/>
<path d="M575.998 164.008L575.875 166.021C575.875 166.021 575.796 168.842 575.451 169.559C575.451 169.559 575.542 171.513 574.624 171.513C573.705 171.513 574.78 169.344 574.78 169.344C574.78 169.344 575.275 167.142 575.021 166.438L574.78 164.021L575.998 164.008Z" fill="#FDB797"/>
<path opacity="0.1" d="M573.007 162.054C573.007 162.054 573.75 162.399 574.161 161.402L575.679 162.145C575.771 162.233 575.845 162.339 575.895 162.457C575.946 162.574 575.972 162.701 575.972 162.829L576.298 164.575C576.16 164.521 576.012 164.495 575.864 164.498C575.716 164.502 575.569 164.535 575.434 164.595C575.299 164.656 575.177 164.743 575.076 164.851C574.975 164.96 574.896 165.087 574.845 165.226L574.936 166.21C575.01 166.453 574.994 166.714 574.89 166.946C574.881 166.967 574.877 166.989 574.877 167.012C574.877 167.034 574.881 167.056 574.89 167.077C574.917 167.148 574.927 167.226 574.918 167.302C574.909 167.378 574.882 167.451 574.84 167.515C574.797 167.578 574.74 167.631 574.673 167.668C574.605 167.705 574.53 167.726 574.454 167.728C574.046 167.732 573.639 167.762 573.235 167.819C572.91 167.911 571.932 167.63 571.6 167.819C571.268 168.008 570.584 167.676 570.584 167.676L570.773 166.881C570.773 166.881 570.649 166.49 570.773 166.354C570.892 165.789 570.865 165.204 570.695 164.653C570.695 164.653 570.134 164.125 569.809 164.217L570.278 162.203C570.376 162.016 570.522 161.858 570.7 161.744C570.878 161.63 571.083 161.564 571.294 161.552C571.645 161.584 571.996 161.484 572.278 161.272C572.278 161.272 571.913 161.93 573.007 162.054Z" fill="black"/>
<path opacity="0.1" d="M573.086 162.021C573.288 162.073 573.836 162.138 574.161 161.317L575.679 162.06C575.772 162.148 575.846 162.255 575.896 162.372C575.947 162.49 575.973 162.616 575.973 162.744L576.298 164.49C576.16 164.436 576.013 164.41 575.865 164.413C575.716 164.417 575.57 164.45 575.435 164.511C575.3 164.571 575.178 164.658 575.077 164.767C574.975 164.875 574.897 165.003 574.846 165.142L574.937 166.126L574.995 166.321C575.022 166.404 575.029 166.492 575.015 166.578C575.002 166.664 574.968 166.746 574.917 166.816C574.9 166.844 574.892 166.875 574.892 166.907C574.892 166.94 574.9 166.971 574.917 166.999C574.944 167.07 574.954 167.148 574.945 167.224C574.936 167.3 574.909 167.373 574.866 167.437C574.824 167.5 574.766 167.553 574.699 167.59C574.632 167.627 574.557 167.648 574.481 167.65C574.073 167.653 573.666 167.684 573.262 167.741C572.937 167.832 571.959 167.552 571.627 167.741C571.295 167.93 570.611 167.598 570.611 167.598L570.8 166.803C570.8 166.803 570.676 166.412 570.8 166.275C570.918 165.711 570.892 165.126 570.721 164.575C570.721 164.575 570.161 164.047 569.835 164.138L570.305 162.125C570.403 161.938 570.549 161.78 570.727 161.666C570.905 161.551 571.11 161.485 571.321 161.474C571.672 161.506 572.023 161.406 572.305 161.194C572.305 161.194 571.94 161.845 572.904 162.008L573.086 162.021Z" fill="black"/>
<path d="M573.086 162.054C573.288 162.106 573.835 162.171 574.161 161.35L575.679 162.093C575.771 162.181 575.845 162.287 575.895 162.405C575.946 162.522 575.972 162.649 575.972 162.777L576.298 164.523C576.16 164.469 576.012 164.442 575.864 164.446C575.716 164.449 575.569 164.482 575.434 164.543C575.299 164.604 575.177 164.691 575.076 164.799C574.975 164.908 574.896 165.035 574.845 165.174L574.936 166.158C575.01 166.401 574.994 166.662 574.89 166.894C574.881 166.915 574.877 166.937 574.877 166.959C574.877 166.982 574.881 167.004 574.89 167.025C574.917 167.096 574.927 167.174 574.918 167.25C574.909 167.326 574.882 167.399 574.84 167.463C574.797 167.526 574.74 167.579 574.673 167.616C574.605 167.653 574.53 167.674 574.454 167.676C574.046 167.68 573.639 167.71 573.235 167.767C572.91 167.859 571.932 167.578 571.6 167.767C571.268 167.956 570.584 167.624 570.584 167.624L570.773 166.829C570.773 166.829 570.649 166.438 570.773 166.301C570.892 165.737 570.865 165.152 570.695 164.601C570.695 164.601 570.134 164.073 569.809 164.165L570.278 162.151C570.376 161.964 570.522 161.806 570.7 161.692C570.878 161.578 571.083 161.511 571.294 161.5C571.645 161.532 571.996 161.432 572.278 161.22C572.278 161.22 571.913 161.871 572.877 162.034L573.086 162.054Z" fill="#F55F44"/>
<path opacity="0.1" d="M573.66 159.356L572.357 160.184C572.39 160.326 572.416 160.469 572.435 160.614C572.587 160.674 572.748 160.705 572.911 160.705C573.235 160.684 573.541 160.545 573.771 160.314C573.704 159.999 573.667 159.678 573.66 159.356Z" fill="black"/>
<path d="M572.858 160.627C573.563 160.627 574.135 160.055 574.135 159.35C574.135 158.645 573.563 158.073 572.858 158.073C572.153 158.073 571.581 158.645 571.581 159.35C571.581 160.055 572.153 160.627 572.858 160.627Z" fill="#FDB797"/>
<path d="M574.747 158.366C575.057 158.366 575.308 158.115 575.308 157.806C575.308 157.496 575.057 157.246 574.747 157.246C574.438 157.246 574.187 157.496 574.187 157.806C574.187 158.115 574.438 158.366 574.747 158.366Z" fill="#72351C"/>
<path d="M574.851 158.399C574.709 158.399 574.572 158.345 574.468 158.249C574.364 158.152 574.301 158.019 574.291 157.878C574.291 157.878 574.291 157.878 574.291 157.917C574.291 158.065 574.35 158.208 574.455 158.313C574.56 158.418 574.703 158.477 574.851 158.477C575 158.477 575.142 158.418 575.248 158.313C575.353 158.208 575.412 158.065 575.412 157.917C575.412 157.917 575.412 157.917 575.412 157.878C575.402 158.019 575.338 158.152 575.234 158.249C575.13 158.345 574.993 158.399 574.851 158.399Z" fill="#72351C"/>
<path d="M574.533 158.959C574.393 158.933 574.269 158.856 574.184 158.743C574.099 158.629 574.061 158.487 574.077 158.347V158.386C574.05 158.533 574.082 158.684 574.167 158.807C574.252 158.93 574.382 159.014 574.529 159.04C574.676 159.067 574.828 159.035 574.95 158.95C575.073 158.865 575.157 158.735 575.184 158.588V158.549C575.149 158.687 575.061 158.807 574.94 158.883C574.819 158.96 574.673 158.987 574.533 158.959Z" fill="#72351C"/>
<path d="M574.096 160.301C573.957 160.276 573.832 160.198 573.748 160.085C573.663 159.971 573.624 159.829 573.64 159.689V159.728C573.613 159.875 573.646 160.026 573.731 160.149C573.816 160.272 573.946 160.356 574.093 160.383C574.24 160.409 574.391 160.377 574.514 160.292C574.637 160.207 574.721 160.077 574.748 159.93V159.891C574.712 160.029 574.625 160.149 574.503 160.226C574.382 160.302 574.237 160.329 574.096 160.301Z" fill="#72351C"/>
<path d="M574.851 158.106C574.709 158.106 574.572 158.052 574.468 157.956C574.364 157.859 574.301 157.726 574.291 157.584C574.291 157.584 574.291 157.584 574.291 157.623C574.291 157.772 574.35 157.915 574.455 158.02C574.56 158.125 574.703 158.184 574.851 158.184C575 158.184 575.142 158.125 575.248 158.02C575.353 157.915 575.412 157.772 575.412 157.623C575.412 157.623 575.412 157.623 575.412 157.584C575.402 157.726 575.338 157.859 575.234 157.956C575.13 158.052 574.993 158.106 574.851 158.106Z" fill="#72351C"/>
<path d="M574.07 157.799C574.071 157.657 574.126 157.521 574.224 157.418C574.322 157.316 574.456 157.254 574.597 157.246H574.558C574.41 157.246 574.267 157.305 574.162 157.41C574.057 157.515 573.998 157.657 573.998 157.806C573.998 157.954 574.057 158.097 574.162 158.202C574.267 158.307 574.41 158.366 574.558 158.366H574.597C574.453 158.358 574.318 158.294 574.22 158.189C574.122 158.083 574.068 157.944 574.07 157.799Z" fill="#72351C"/>
<path opacity="0.1" d="M574.637 163.096C574.696 163.373 574.696 163.659 574.637 163.936C574.637 163.936 574.558 164.673 574.682 164.796" fill="black"/>
<path opacity="0.1" d="M570.845 163.233C570.904 163.51 570.904 163.796 570.845 164.073C570.845 164.073 570.767 164.809 570.891 164.933" fill="black"/>
<path opacity="0.1" d="M570.812 166.275C570.933 166.318 571.064 166.318 571.184 166.275C571.33 166.231 571.487 166.231 571.633 166.275" fill="black"/>
<path opacity="0.1" d="M571.001 165.187C571.445 165.21 571.888 165.141 572.304 164.985C572.304 164.985 573.894 165.376 574.35 165.096" fill="black"/>
<path d="M570.558 171.891H570.122C569.971 171.891 569.848 172.014 569.848 172.165V172.224C569.848 172.375 569.971 172.497 570.122 172.497H570.558C570.709 172.497 570.832 172.375 570.832 172.224V172.165C570.832 172.014 570.709 171.891 570.558 171.891Z" fill="#FDB797"/>
<path d="M569.848 172.048H570.376L570.832 172.119H570.669L569.848 172.048Z" fill="#F0E4E4"/>
<path d="M573.386 169.52H573.914L574.37 169.565H574.207L573.386 169.52Z" fill="#F0E4E4"/>
<path d="M573.386 169.631H573.914L574.37 169.676H574.207L573.386 169.631Z" fill="#F0E4E4"/>
<path d="M573.386 169.748H573.914L574.37 169.793H574.207L573.386 169.748Z" fill="#F0E4E4"/>
<path d="M573.386 169.846H573.914L574.37 169.891H574.207L573.386 169.846Z" fill="#F0E4E4"/>
<path d="M569.848 172.478H570.376L570.832 172.53H570.669L569.848 172.478Z" fill="#F0E4E4"/>
<path d="M569.848 172.426H570.376L570.832 172.478H570.669L569.848 172.426Z" fill="#F0E4E4"/>
<path d="M569.848 172.354H570.376L570.832 172.406H570.669L569.848 172.354Z" fill="#F0E4E4"/>
<path d="M569.848 172.315H570.376L570.832 172.367H570.669L569.848 172.315Z" fill="#F0E4E4"/>
<path d="M569.848 171.976H570.376L570.832 172.048H570.669L569.848 171.976Z" fill="#F0E4E4"/>
<path d="M569.848 171.885H570.376L570.832 171.957H570.669L569.848 171.885Z" fill="#F0E4E4"/>
<path opacity="0.1" d="M573.073 158.529C573.022 159.005 573.082 159.487 573.249 159.936C573.329 160.153 573.364 160.385 573.35 160.615C573.337 160.846 573.276 161.072 573.171 161.278C573.24 161.295 573.313 161.295 573.382 161.278C573.451 161.261 573.515 161.228 573.568 161.181C573.68 161.082 573.776 160.968 573.855 160.842C573.939 160.739 573.999 160.619 574.031 160.49C574.044 160.288 574.013 160.086 573.94 159.897C573.852 159.55 573.789 159.198 573.751 158.842C573.751 158.627 573.751 158.001 573.51 157.943C573.269 157.884 573.119 158.347 573.073 158.529Z" fill="black"/>
<path d="M573.106 158.516C573.055 158.992 573.115 159.474 573.282 159.923C573.365 160.142 573.401 160.375 573.389 160.608C573.377 160.842 573.316 161.07 573.21 161.278C573.279 161.295 573.352 161.295 573.421 161.278C573.49 161.261 573.554 161.228 573.608 161.181C573.719 161.082 573.816 160.968 573.894 160.842C573.978 160.739 574.038 160.619 574.07 160.49C574.083 160.288 574.052 160.086 573.979 159.897C573.891 159.55 573.828 159.198 573.79 158.842C573.79 158.627 573.79 158.001 573.549 157.943C573.308 157.884 573.171 158.334 573.106 158.516Z" fill="#72351C"/>
<path opacity="0.1" d="M572.559 158.848C572.663 158.959 572.689 159.128 572.78 159.259C572.863 159.348 572.964 159.417 573.077 159.461C573.19 159.505 573.311 159.522 573.432 159.513C573.495 159.509 573.558 159.523 573.614 159.552C573.712 159.617 573.719 159.76 573.784 159.858C573.817 159.896 573.858 159.926 573.905 159.946C573.951 159.967 574 159.978 574.051 159.978C574.101 159.978 574.151 159.967 574.197 159.946C574.243 159.926 574.284 159.896 574.318 159.858C574.427 159.702 574.482 159.514 574.474 159.324C574.495 159.107 574.495 158.889 574.474 158.672C574.468 158.414 574.366 158.168 574.188 157.982C574.039 157.872 573.867 157.799 573.686 157.767C573.437 157.679 573.17 157.658 572.911 157.708C572.786 157.75 572.667 157.809 572.559 157.884L572.103 158.19C571.933 158.308 571.621 158.542 571.927 158.672C572.148 158.718 572.396 158.672 572.559 158.848Z" fill="black"/>
<path d="M572.59 158.835C572.695 158.946 572.721 159.115 572.812 159.246C572.894 159.335 572.996 159.404 573.109 159.448C573.221 159.492 573.343 159.509 573.463 159.5C573.527 159.496 573.59 159.51 573.646 159.539C573.744 159.604 573.75 159.747 573.815 159.845C573.849 159.883 573.89 159.913 573.936 159.933C573.982 159.954 574.032 159.965 574.082 159.965C574.133 159.965 574.183 159.954 574.229 159.933C574.275 159.913 574.316 159.883 574.349 159.845C574.48 159.688 574.552 159.489 574.551 159.285C574.572 159.068 574.572 158.85 574.551 158.633C574.545 158.375 574.443 158.129 574.265 157.943C574.116 157.833 573.945 157.76 573.763 157.728C573.514 157.64 573.247 157.619 572.988 157.669C572.863 157.711 572.744 157.77 572.636 157.845L572.18 158.151C572.011 158.268 571.698 158.503 572.004 158.633C572.18 158.672 572.421 158.672 572.59 158.835Z" fill="#72351C"/>
<path d="M573.418 169.52H573.946L574.402 169.565H574.239L573.418 169.52Z" fill="#F0E4E4"/>
<path d="M573.418 169.631H573.946L574.402 169.676H574.239L573.418 169.631Z" fill="#F0E4E4"/>
<path d="M573.418 169.748H573.946L574.402 169.793H574.239L573.418 169.748Z" fill="#F0E4E4"/>
<path d="M573.418 169.846H573.946L574.402 169.891H574.239L573.418 169.846Z" fill="#F0E4E4"/>
<path d="M573.171 175.859H573.699L574.155 175.905H573.992L573.171 175.859Z" fill="#F0E4E4"/>
<path d="M573.171 175.963H573.699L574.155 176.009H573.992L573.171 175.963Z" fill="#F0E4E4"/>
<path d="M573.171 176.074H573.699L574.155 176.12H573.992L573.171 176.074Z" fill="#F0E4E4"/>
<path d="M573.171 176.185H573.699L574.155 176.23H573.992L573.171 176.185Z" fill="#F0E4E4"/>
<path opacity="0.2" d="M277.636 470.586H225.816V441.392H277.636V470.586ZM228.005 468.396H275.434V443.581H228.005V468.396Z" fill="#09B2FB"/>
<path d="M191.326 426.818C194.583 428.72 198.017 429.495 201.567 428.316C202.49 428.005 203.382 427.611 204.232 427.137C237.459 427.84 268.229 427.515 269.421 423.938C271.376 418.009 258.997 388.809 252.749 374.697C254.587 373.448 256.141 371.825 257.31 369.935C265.988 379.857 282.132 392.659 291.729 393.298C291.729 393.298 305.736 426.57 321.496 421.312C337.256 416.055 339.008 388.04 331.125 384.542L278.594 351.269V296.061C280.191 292.896 280.947 289.374 280.79 285.833C280.79 285.181 280.823 284.53 280.79 283.878L279.037 268.118C279.037 268.118 278.946 267.597 278.705 266.652C274.796 251.466 266.086 241.244 253.805 239.726C254.403 238.633 254.766 237.429 254.873 236.188C255.127 233.243 253.902 230.24 254.593 227.367C255.401 224.018 258.502 221.855 261.049 219.549C266.49 214.571 269.916 207.822 273.226 201.235C276.379 194.961 279.578 188.524 280.393 181.553C281.207 174.582 279.09 166.842 273.389 162.738C268.959 159.539 262.724 158.698 259.538 154.268C258.111 152.275 257.518 149.818 256.535 147.577C253.701 141.121 247.589 136.541 240.957 134.15C217.685 125.771 189.137 135.388 174.289 154.711C169.442 161.018 165.943 168.236 162.484 175.396L149.975 201.255C147.818 205.704 145.734 211.262 148.613 215.281C150.02 217.236 152.431 218.448 153.408 220.656C154.711 223.588 153.083 227.425 154.998 230.005C156.053 231.432 157.884 231.999 159.454 232.833C161.563 234.033 163.398 235.659 164.842 237.608L137.375 258.893C135.39 260.431 133.739 262.357 132.523 264.553C131.306 266.749 130.55 269.171 130.299 271.669L127.583 298.745C126.718 301.82 126.306 305.005 126.358 308.199C126.26 311.052 126.592 314.199 128.019 316.668L128.619 316.525C129.27 335.516 130.404 362.84 131.524 367.889C132.176 370.886 136.287 376.17 141.825 381.616L139.87 387.154H140.522L139.87 388.894H141.173C135.648 408.856 120.618 423.899 120.618 423.899C120.618 423.899 155.376 425.788 191.326 426.818ZM158.659 334.578V313.293C161.865 313.788 164.23 314.896 164.985 316.916L158.659 334.578ZM167.937 241.947L168.041 242.104H168.002L167.937 241.947Z" fill="url(#paint2_linear)"/>
<path d="M246.97 290.276C246.97 290.276 248.632 349.315 250.299 356.801C251.967 364.286 276.086 386.763 288.549 387.597C288.549 387.597 301.853 419.195 316.824 414.205C331.796 409.214 333.457 382.607 325.945 379.278L276.086 347.68V284.484L246.97 290.276Z" fill="#FDB797"/>
<path d="M248.221 362.651C248.221 362.651 269.844 409.221 267.349 416.726C264.854 424.231 125.973 416.726 125.973 416.726C125.973 416.726 151.753 390.946 146.763 362.651H248.221Z" fill="#565171"/>
<path d="M231.588 224.611C231.588 224.611 228.259 257.043 234.083 264.528C239.908 272.014 210.799 276.164 208.329 276.164C205.86 276.164 179.227 267.043 174.236 264.522C169.246 262.001 165.115 243.732 165.115 243.732C165.115 243.732 190.061 248.723 197.547 219.627L231.588 224.611Z" fill="#FDB797"/>
<path d="M240.305 141.421C246.605 143.688 252.41 148.04 255.101 154.17C256.039 156.301 256.599 158.633 257.955 160.529C260.978 164.751 266.9 165.546 271.108 168.588C276.509 172.497 278.509 179.84 277.76 186.459C277.011 193.078 273.968 199.196 270.978 205.151C267.831 211.411 264.58 217.816 259.414 222.546C257.003 224.754 254.046 226.806 253.277 229.986C252.625 232.716 253.785 235.563 253.537 238.364C252.938 245.277 244.677 248.495 237.778 249.264C234.781 249.596 231.347 249.616 229.236 247.459C228.155 246.352 227.614 244.853 226.923 243.459C225.354 240.284 222.935 237.605 219.936 235.721C216.937 233.837 213.475 232.82 209.933 232.784C206.391 232.747 202.908 233.693 199.871 235.515C196.834 237.337 194.361 239.965 192.726 243.107C191.11 246.221 190.166 249.993 187.221 251.896C182.713 254.808 176.686 251.388 173.37 247.179C170.054 242.97 167.637 237.68 162.9 235.159C161.408 234.364 159.643 233.856 158.672 232.475C156.854 230.025 158.398 226.383 157.167 223.595C156.235 221.497 153.949 220.337 152.607 218.487C149.87 214.669 151.851 209.366 153.91 205.164L165.793 180.602C169.051 173.8 172.406 166.92 177.005 160.953C191.084 142.593 218.2 133.459 240.305 141.421Z" fill="#8F5A6A"/>
<path opacity="0.1" d="M209.972 270.346C209.972 270.346 177.54 270.346 169.227 240.41L141.929 261.564C140.045 263.026 138.478 264.856 137.323 266.943C136.169 269.029 135.45 271.329 135.212 273.702L132.606 299.455C132.606 299.455 129.694 309.02 133.023 314.837C133.023 314.837 167.552 306.107 168.367 316.082L144.274 383.441C144.274 383.441 181.697 384.275 191.671 377.623C191.671 377.623 232.416 385.936 242.397 376.789C252.378 367.642 262.352 368.476 254.039 347.686C254.039 347.686 270.672 331.053 263.16 307.769C255.649 284.484 262.743 308.186 262.743 308.186C262.743 308.186 278.959 300.283 278.125 285.318L276.464 270.333C276.464 270.333 276.373 269.838 276.145 268.946C271.076 249.218 257.453 238.325 238.306 245.27C232.709 247.296 226.989 244.977 226.989 244.977C226.989 244.977 233.25 272.034 209.972 270.346Z" fill="black"/>
<path d="M209.972 268.685C209.972 268.685 177.54 268.685 169.227 238.748L141.929 259.903C140.046 261.364 138.479 263.193 137.325 265.278C136.17 267.364 135.451 269.662 135.212 272.034L132.606 297.788C132.606 297.788 129.694 307.352 133.023 313.17C133.023 313.17 167.552 304.439 168.367 314.414L144.261 381.773C144.261 381.773 181.684 382.607 191.658 375.955C191.658 375.955 232.403 384.268 242.384 375.121C252.365 365.974 262.339 366.808 254.026 346.018C254.026 346.018 270.659 329.385 263.147 306.101C255.636 282.816 262.73 306.518 262.73 306.518C262.73 306.518 278.946 298.615 278.112 283.65L276.451 268.665C276.451 268.665 276.36 268.17 276.132 267.278C271.063 247.55 257.44 236.657 238.293 243.602C232.696 245.628 226.976 243.309 226.976 243.309C226.976 243.309 233.25 270.346 209.972 268.685Z" fill="#B45181"/>
<path d="M133.048 296.954C133.048 296.954 134.71 355.993 136.378 363.479C138.045 370.964 162.157 393.415 174.627 394.249C174.627 394.249 187.931 425.847 202.902 420.856C217.874 415.866 219.535 389.259 212.023 385.929L162.131 354.331V291.136L133.048 296.954Z" fill="#FDB797"/>
<path opacity="0.1" d="M168.803 299.032C168.803 299.032 149.694 312.01 133.049 310.928C133.049 310.928 131.387 288.641 136.378 287.396C141.368 286.152 162.985 287.396 168.803 299.032Z" fill="black"/>
<path d="M168.803 298.205C168.803 298.205 149.694 311.182 133.049 310.094C133.049 310.094 131.387 287.807 136.378 286.562C141.368 285.318 162.985 286.562 168.803 298.205Z" fill="#B45181"/>
<path opacity="0.1" d="M195.833 221.282L229.926 226.272C229.926 226.272 229.158 233.778 229.008 242.397C222.383 245.19 215.105 246.06 208.008 244.908C200.912 243.756 194.283 240.627 188.882 235.882C191.735 232.364 194.198 227.634 195.833 221.282Z" fill="black"/>
<path d="M215.789 243.732C236.914 243.732 254.039 226.607 254.039 205.483C254.039 184.358 236.914 167.233 215.789 167.233C194.665 167.233 177.54 184.358 177.54 205.483C177.54 226.607 194.665 243.732 215.789 243.732Z" fill="#FDB797"/>
<path opacity="0.1" d="M205.723 198.134C207.3 198.864 209.098 198.877 210.838 198.864C217.605 198.82 224.365 198.57 231.119 198.114C236.24 197.769 241.699 197.17 245.647 193.893C250.964 189.482 251.804 181.214 249.061 174.875C246.319 168.536 240.722 163.865 234.813 160.295C231.47 158.175 227.847 156.533 224.05 155.415C213.085 152.437 200.961 156.066 192.25 163.396C183.54 170.725 177.989 181.234 175.051 192.212C174.034 196.01 172.731 200.531 168.972 201.685C171.474 205.848 177.579 206.506 181.97 204.421C188.433 201.346 191.742 189.58 197.547 187.729C204.003 185.69 200.238 195.619 205.723 198.134Z" fill="black"/>
<path d="M205.724 197.3C207.301 198.03 209.099 198.043 210.838 198.03C217.605 197.986 224.366 197.736 231.119 197.28C236.24 196.935 241.7 196.336 245.648 193.059C250.964 188.648 251.805 180.38 249.062 174.041C246.319 167.702 240.723 163.031 234.813 159.461C231.475 157.354 227.859 155.723 224.07 154.613C213.105 151.636 200.981 155.265 192.27 162.594C183.56 169.924 178.009 180.432 175.071 191.41C174.054 195.209 172.751 199.73 168.992 200.883C171.494 205.046 177.599 205.704 181.99 203.619C188.453 200.544 191.762 188.778 197.567 186.928C204.004 184.863 200.238 194.785 205.724 197.3Z" fill="#8F5A6A"/>
<path opacity="0.1" d="M254.456 345.601C241.98 342.268 229.12 340.591 216.206 340.611L254.456 345.601Z" fill="black"/>
<path opacity="0.1" d="M168.803 300.7C168.803 300.7 181.279 309.821 177.924 314.837L168.803 300.7Z" fill="black"/>
<g opacity="0.7">
<path opacity="0.7" d="M513.61 394.985H105.314V430.681H129.081V437.652V543.007H490.691V437.652V430.681H513.61V394.985Z" fill="url(#paint3_linear)"/>
</g>
<path d="M486.996 415.775H132.755V543.007H486.996V415.775Z" fill="#E0E0E0"/>
<path opacity="0.1" d="M486.996 422.426H132.755V442.382H486.996V422.426Z" fill="black"/>
<path d="M509.453 401.637H109.47V435.73H509.453V401.637Z" fill="#E0E0E0"/>
<path d="M257.316 393.246H189.28C186.941 393.246 185.045 395.142 185.045 397.48V399.819C185.045 402.158 186.941 404.054 189.28 404.054H257.316C259.655 404.054 261.551 402.158 261.551 399.819V397.48C261.551 395.142 259.655 393.246 257.316 393.246Z" fill="#535461"/>
<g opacity="0.7">
<path opacity="0.7" d="M403.363 272.718H249.993C239.839 272.718 231.608 280.949 231.608 291.103V385.806C231.608 395.959 239.839 404.191 249.993 404.191H403.363C413.517 404.191 421.749 395.959 421.749 385.806V291.103C421.749 280.949 413.517 272.718 403.363 272.718Z" fill="url(#paint4_linear)"/>
</g>
<path d="M397.636 275.148H252.488C242.831 275.148 235.002 282.977 235.002 292.634V386.705C235.002 396.362 242.831 404.191 252.488 404.191H397.636C407.294 404.191 415.123 396.362 415.123 386.705V292.634C415.123 282.977 407.294 275.148 397.636 275.148Z" fill="#3E3F49"/>
<path d="M400.132 275.148H254.984C245.326 275.148 237.498 282.977 237.498 292.634V386.705C237.498 396.362 245.326 404.191 254.984 404.191H400.132C409.79 404.191 417.618 396.362 417.618 386.705V292.634C417.618 282.977 409.79 275.148 400.132 275.148Z" fill="#535461"/>
<path d="M335.972 344.598C339.185 344.598 341.79 341.993 341.79 338.78C341.79 335.567 339.185 332.962 335.972 332.962C332.759 332.962 330.154 335.567 330.154 338.78C330.154 341.993 332.759 344.598 335.972 344.598Z" fill="#E0E0E0"/>
</g>
<defs>
<filter id="filter0_d" x="0" y="0" width="728.077" height="569" filterUnits="userSpaceOnUse" color-interpolation-filters="sRGB">
<feFlood flood-opacity="0" result="BackgroundImageFix"/>
<feColorMatrix in="SourceAlpha" type="matrix" values="0 0 0 0 0 0 0 0 0 0 0 0 0 0 0 0 0 0 127 0"/>
<feOffset dy="4"/>
<feGaussianBlur stdDeviation="11"/>
<feColorMatrix type="matrix" values="0 0 0 0 0 0 0 0 0 0 0 0 0 0 0 0 0 0 0.15 0"/>
<feBlend mode="normal" in2="BackgroundImageFix" result="effect1_dropShadow"/>
<feBlend mode="normal" in="SourceGraphic" in2="effect1_dropShadow" result="shape"/>
</filter>
<linearGradient id="paint0_linear" x1="515.161" y1="255.375" x2="515.161" y2="31.2776" gradientUnits="userSpaceOnUse">
<stop stop-color="#808080" stop-opacity="0.25"/>
<stop offset="0.54" stop-color="#808080" stop-opacity="0.12"/>
<stop offset="1" stop-color="#808080" stop-opacity="0.1"/>
</linearGradient>
<linearGradient id="paint1_linear" x1="8981.83" y1="7616.74" x2="8981.83" y2="6656.21" gradientUnits="userSpaceOnUse">
<stop stop-color="#808080" stop-opacity="0.25"/>
<stop offset="0.54" stop-color="#808080" stop-opacity="0.12"/>
<stop offset="1" stop-color="#808080" stop-opacity="0.1"/>
</linearGradient>
<linearGradient id="paint2_linear" x1="-114087" y1="201938" x2="-114087" y2="65818" gradientUnits="userSpaceOnUse">
<stop stop-color="#808080" stop-opacity="0.25"/>
<stop offset="0.54" stop-color="#808080" stop-opacity="0.12"/>
<stop offset="1" stop-color="#808080" stop-opacity="0.1"/>
</linearGradient>
<linearGradient id="paint3_linear" x1="180258" y1="119675" x2="180258" y2="86046" gradientUnits="userSpaceOnUse">
<stop stop-color="#808080" stop-opacity="0.25"/>
<stop offset="0.54" stop-color="#808080" stop-opacity="0.12"/>
<stop offset="1" stop-color="#808080" stop-opacity="0.1"/>
</linearGradient>
<linearGradient id="paint4_linear" x1="89152.9" y1="78206.1" x2="89152.9" y2="51674.8" gradientUnits="userSpaceOnUse">
<stop stop-color="#808080" stop-opacity="0.25"/>
<stop offset="0.54" stop-color="#808080" stop-opacity="0.12"/>
<stop offset="1" stop-color="#808080" stop-opacity="0.1"/>
</linearGradient>
<clipPath id="clip0">
<rect width="684.077" height="525" fill="white" transform="translate(22 18)"/>
</clipPath>
</defs>
</svg>
