<svg width="48" height="41" viewBox="0 0 48 41" fill="none" xmlns="http://www.w3.org/2000/svg">
<path d="M47.3997 12.1659C47.3996 12.1419 47.3982 12.1178 47.3961 12.0939C47.3956 12.0888 47.3956 12.0836 47.3952 12.0784C47.3922 12.0506 47.3879 12.0229 47.3826 11.9955C47.3802 11.9836 47.377 11.972 47.3741 11.9602C47.3704 11.9445 47.3666 11.9288 47.3621 11.9133C47.3582 11.9004 47.3538 11.8878 47.3494 11.8751C47.3445 11.861 47.3396 11.8469 47.334 11.833C47.329 11.8205 47.3235 11.8081 47.3179 11.7959C47.3117 11.7823 47.3053 11.7688 47.2985 11.7554C47.2923 11.7435 47.286 11.7319 47.2794 11.7204C47.2719 11.7072 47.264 11.6943 47.2558 11.6815C47.2486 11.6703 47.2414 11.6593 47.2338 11.6485C47.2251 11.6361 47.2158 11.624 47.2064 11.6119C47.1982 11.6014 47.19 11.591 47.1815 11.5809C47.178 11.5768 47.175 11.5724 47.1713 11.5684L37.4823 0.599634C37.48 0.597074 37.4774 0.59488 37.4751 0.592412C37.46 0.575685 37.4441 0.559872 37.4278 0.544241C37.4216 0.538391 37.4158 0.532176 37.4095 0.526509C37.3902 0.50905 37.3699 0.492688 37.349 0.476875C37.345 0.473859 37.3412 0.470385 37.3371 0.46746C37.3121 0.44927 37.2863 0.432086 37.2592 0.416273C37.2589 0.41609 37.2586 0.415816 37.2582 0.415633C37.2046 0.384463 37.1472 0.358138 37.0862 0.337755C37.0857 0.337572 37.0852 0.337481 37.0847 0.337389C37.0756 0.334373 37.0661 0.332362 37.0568 0.329619C37.0355 0.323221 37.014 0.316823 36.9925 0.31207C36.9851 0.310424 36.9774 0.309602 36.9699 0.308231C36.946 0.303569 36.9221 0.299364 36.8982 0.296622C36.8908 0.295799 36.8833 0.295708 36.8759 0.295068C36.8515 0.292966 36.8273 0.29132 36.8032 0.291229C36.8012 0.291229 36.7992 0.290955 36.7972 0.290955H11.2032C11.2011 0.290955 11.199 0.291229 11.1968 0.29132C11.1733 0.291503 11.1497 0.293148 11.126 0.295159C11.1179 0.295891 11.1099 0.295982 11.1019 0.296805C11.0786 0.299456 11.0555 0.303569 11.0323 0.308048C11.0241 0.309601 11.0157 0.310516 11.0076 0.312252C10.9866 0.316914 10.9656 0.323221 10.9446 0.329437C10.935 0.33227 10.9251 0.334373 10.9156 0.337481C10.9151 0.337663 10.9146 0.337755 10.9141 0.337846C10.853 0.35823 10.7956 0.384555 10.7421 0.415724C10.7417 0.415907 10.7414 0.416181 10.7411 0.416364C10.714 0.432177 10.6881 0.449271 10.6632 0.467552C10.6591 0.470568 10.6553 0.47395 10.6513 0.477058C10.6305 0.492871 10.6102 0.509233 10.5909 0.5266C10.5846 0.532359 10.5786 0.538574 10.5725 0.544424C10.5562 0.559963 10.5403 0.575868 10.5253 0.592504C10.523 0.595063 10.5204 0.597257 10.5181 0.599725L0.82907 11.5685C0.825505 11.5725 0.822489 11.5769 0.818924 11.581C0.810332 11.5911 0.802105 11.6015 0.79397 11.612C0.784555 11.6241 0.775323 11.6362 0.766548 11.6486C0.758962 11.6594 0.751741 11.6704 0.744611 11.6815C0.736384 11.6944 0.728432 11.7073 0.720937 11.7205C0.714355 11.732 0.707957 11.7436 0.701924 11.7555C0.695069 11.7688 0.688579 11.7824 0.682455 11.796C0.676879 11.8082 0.671395 11.8205 0.666367 11.8331C0.660791 11.847 0.655855 11.8611 0.651011 11.8751C0.646623 11.8878 0.642145 11.9005 0.638305 11.9134C0.633735 11.9289 0.629988 11.9446 0.62624 11.9603C0.623406 11.9721 0.620207 11.9837 0.61783 11.9956C0.612346 12.0231 0.60805 12.0507 0.605216 12.0785C0.604668 12.0836 0.604668 12.0889 0.604302 12.094C0.6022 12.1179 0.600829 12.142 0.600646 12.166C0.600463 12.1685 0.600098 12.1708 0.600098 12.1735C0.600098 12.181 0.601012 12.1883 0.601195 12.1957C0.601652 12.2147 0.602383 12.2336 0.604028 12.2526C0.605034 12.2645 0.606496 12.2763 0.607959 12.2881C0.610061 12.3045 0.612438 12.3208 0.615454 12.3369C0.617739 12.3497 0.620207 12.3624 0.623041 12.375C0.626423 12.3899 0.630353 12.4047 0.634466 12.4195C0.638031 12.4324 0.641596 12.4452 0.645709 12.4579C0.650371 12.4721 0.655855 12.4862 0.661248 12.5004C0.666002 12.5127 0.67048 12.5252 0.675691 12.5373C0.681906 12.5516 0.689127 12.5656 0.696166 12.5797C0.701741 12.5909 0.70686 12.6025 0.712893 12.6134C0.721302 12.6287 0.7309 12.6435 0.740223 12.6584C0.745982 12.6675 0.751192 12.6771 0.757225 12.686C0.772764 12.7089 0.7894 12.7313 0.807224 12.753L0.808138 12.7541C0.808504 12.7546 0.80887 12.755 0.809235 12.7555L23.2932 40.1749C23.2951 40.1772 23.2973 40.1792 23.2992 40.1815C23.3188 40.2048 23.3391 40.2274 23.3607 40.2485C23.3632 40.2509 23.3659 40.2531 23.3685 40.2555C23.3878 40.274 23.408 40.2914 23.4287 40.3081C23.4352 40.3133 23.4418 40.3184 23.4484 40.3234C23.4699 40.3398 23.4921 40.3553 23.515 40.3697C23.5175 40.3712 23.5198 40.373 23.5223 40.3745C23.5476 40.39 23.5739 40.404 23.6006 40.4169C23.6075 40.4203 23.6145 40.4234 23.6216 40.4266C23.6439 40.4368 23.6666 40.4461 23.6898 40.4544C23.6955 40.4565 23.7011 40.4588 23.7069 40.4607C23.7352 40.4703 23.7641 40.4785 23.7934 40.4854C23.7992 40.4868 23.805 40.4877 23.8109 40.4889C23.835 40.494 23.8594 40.4981 23.8842 40.5012C23.8923 40.5022 23.9004 40.5033 23.9085 40.5041C23.9387 40.5072 23.9691 40.5093 23.9999 40.5093C24.0307 40.5093 24.0612 40.5072 24.0913 40.5041C24.0995 40.5033 24.1075 40.5022 24.1156 40.5012C24.1403 40.4981 24.1647 40.494 24.1889 40.4889C24.1947 40.4877 24.2006 40.4867 24.2063 40.4854C24.2357 40.4786 24.2645 40.4703 24.2929 40.4607C24.2986 40.4588 24.3043 40.4564 24.31 40.4544C24.3331 40.446 24.3559 40.4368 24.3782 40.4266C24.3852 40.4234 24.3922 40.4203 24.3992 40.4169C24.4259 40.404 24.4521 40.39 24.4774 40.3745C24.4799 40.373 24.4823 40.3712 24.4847 40.3697C24.5077 40.3553 24.5297 40.3398 24.5513 40.3235C24.558 40.3185 24.5645 40.3133 24.571 40.3081C24.5918 40.2914 24.612 40.274 24.6313 40.2556C24.6338 40.2531 24.6365 40.2509 24.639 40.2485C24.6607 40.2273 24.6811 40.2048 24.7005 40.1815C24.7025 40.1792 24.7047 40.1773 24.7066 40.1749L47.1905 12.7555C47.1909 12.755 47.1912 12.7546 47.1916 12.7541L47.1925 12.753C47.2103 12.7313 47.2271 12.7089 47.2425 12.686C47.2486 12.6771 47.2538 12.6675 47.2595 12.6584C47.2688 12.6435 47.2784 12.6287 47.2868 12.6134C47.2929 12.6025 47.298 12.5909 47.3036 12.5797C47.3106 12.5656 47.3177 12.5516 47.3241 12.5373C47.3294 12.5252 47.3337 12.5127 47.3385 12.5004C47.3439 12.4863 47.3494 12.4722 47.354 12.4579C47.3581 12.4452 47.3617 12.4324 47.3653 12.4195C47.3694 12.4047 47.3733 12.3899 47.3767 12.375C47.3795 12.3623 47.382 12.3497 47.3843 12.3369C47.3872 12.3207 47.3897 12.3045 47.3918 12.2881C47.3932 12.2763 47.3947 12.2644 47.3957 12.2526C47.3974 12.2336 47.3981 12.2146 47.3985 12.1957C47.3992 12.1882 47.4001 12.1809 47.4001 12.1735C47.4001 12.1708 47.3997 12.1685 47.3997 12.1659ZM37.1623 2.99905L44.459 11.2594H34.4089L37.1623 2.99905ZM35.5287 2.11881L32.7924 10.3278L25.9516 2.11881H35.5287ZM22.0486 2.11881L15.2077 10.3278L12.4714 2.11881H22.0486ZM10.8379 2.99905L13.5913 11.2594H3.54119L10.8379 2.99905ZM3.44576 13.0876H14.2006L21.567 35.1867L3.44576 13.0876ZM24.0001 36.7048L16.1276 13.0876H20.3438C20.8487 13.0876 21.2579 12.6783 21.2579 12.1735C21.2579 11.6687 20.8487 11.2594 20.3438 11.2594H16.8111L24.0001 2.63251L31.1891 11.2594H27.5704C27.0656 11.2594 26.6564 11.6687 26.6564 12.1735C26.6564 12.6783 27.0656 13.0876 27.5704 13.0876H31.8726L24.0001 36.7048ZM26.4332 35.1867L33.7996 13.0876H44.5544L26.4332 35.1867Z" fill="white"/>
</svg>
