<svg width="340" height="370" viewBox="0 0 340 370" fill="none" xmlns="http://www.w3.org/2000/svg">
<circle cx="65" cy="5" r="4" transform="rotate(90 65 5)" stroke="#A0E1FD" stroke-width="2"/>
<circle cx="35" cy="5" r="4" transform="rotate(90 35 5)" stroke="#A0E1FD" stroke-width="2"/>
<circle cx="5" cy="5" r="4" transform="rotate(90 5 5)" stroke="#A0E1FD" stroke-width="2"/>
<circle cx="65" cy="35" r="4" transform="rotate(90 65 35)" stroke="#A0E1FD" stroke-width="2"/>
<circle cx="35" cy="35" r="4" transform="rotate(90 35 35)" stroke="#A0E1FD" stroke-width="2"/>
<circle cx="5" cy="35" r="4" transform="rotate(90 5 35)" stroke="#A0E1FD" stroke-width="2"/>
<circle cx="65" cy="65" r="4" transform="rotate(90 65 65)" stroke="#A0E1FD" stroke-width="2"/>
<circle cx="35" cy="65" r="4" transform="rotate(90 35 65)" stroke="#A0E1FD" stroke-width="2"/>
<circle cx="5" cy="65" r="4" transform="rotate(90 5 65)" stroke="#A0E1FD" stroke-width="2"/>
<circle cx="65" cy="95" r="4" transform="rotate(90 65 95)" stroke="#A0E1FD" stroke-width="2"/>
<circle cx="35" cy="95" r="4" transform="rotate(90 35 95)" stroke="#A0E1FD" stroke-width="2"/>
<circle cx="5" cy="95" r="4" transform="rotate(90 5 95)" stroke="#A0E1FD" stroke-width="2"/>
<circle cx="65" cy="125" r="4" transform="rotate(90 65 125)" stroke="#A0E1FD" stroke-width="2"/>
<circle cx="35" cy="125" r="4" transform="rotate(90 35 125)" stroke="#A0E1FD" stroke-width="2"/>
<circle cx="5" cy="125" r="4" transform="rotate(90 5 125)" stroke="#A0E1FD" stroke-width="2"/>
<circle cx="65" cy="155" r="4" transform="rotate(90 65 155)" stroke="#A0E1FD" stroke-width="2"/>
<circle cx="35" cy="155" r="4" transform="rotate(90 35 155)" stroke="#A0E1FD" stroke-width="2"/>
<circle cx="5" cy="155" r="4" transform="rotate(90 5 155)" stroke="#A0E1FD" stroke-width="2"/>
<circle cx="65" cy="185" r="4" transform="rotate(90 65 185)" stroke="#A0E1FD" stroke-width="2"/>
<circle cx="35" cy="185" r="4" transform="rotate(90 35 185)" stroke="#A0E1FD" stroke-width="2"/>
<circle cx="5" cy="185" r="4" transform="rotate(90 5 185)" stroke="#A0E1FD" stroke-width="2"/>
<circle cx="335" cy="305" r="4" transform="rotate(90 335 305)" stroke="#A0E1FD" stroke-width="2"/>
<circle cx="335" cy="335" r="4" transform="rotate(90 335 335)" stroke="#A0E1FD" stroke-width="2"/>
<circle cx="335" cy="365" r="4" transform="rotate(90 335 365)" stroke="#A0E1FD" stroke-width="2"/>
<circle cx="305" cy="305" r="4" transform="rotate(90 305 305)" stroke="#A0E1FD" stroke-width="2"/>
<circle cx="305" cy="335" r="4" transform="rotate(90 305 335)" stroke="#A0E1FD" stroke-width="2"/>
<circle cx="305" cy="365" r="4" transform="rotate(90 305 365)" stroke="#A0E1FD" stroke-width="2"/>
<circle cx="275" cy="305" r="4" transform="rotate(90 275 305)" stroke="#A0E1FD" stroke-width="2"/>
<circle cx="275" cy="335" r="4" transform="rotate(90 275 335)" stroke="#A0E1FD" stroke-width="2"/>
<circle cx="275" cy="365" r="4" transform="rotate(90 275 365)" stroke="#A0E1FD" stroke-width="2"/>
<circle cx="245" cy="305" r="4" transform="rotate(90 245 305)" stroke="#A0E1FD" stroke-width="2"/>
<circle cx="245" cy="335" r="4" transform="rotate(90 245 335)" stroke="#A0E1FD" stroke-width="2"/>
<circle cx="245" cy="365" r="4" transform="rotate(90 245 365)" stroke="#A0E1FD" stroke-width="2"/>
<circle cx="215" cy="305" r="4" transform="rotate(90 215 305)" stroke="#A0E1FD" stroke-width="2"/>
<circle cx="215" cy="335" r="4" transform="rotate(90 215 335)" stroke="#A0E1FD" stroke-width="2"/>
<circle cx="215" cy="365" r="4" transform="rotate(90 215 365)" stroke="#A0E1FD" stroke-width="2"/>
<circle cx="185" cy="305" r="4" transform="rotate(90 185 305)" stroke="#A0E1FD" stroke-width="2"/>
<circle cx="185" cy="335" r="4" transform="rotate(90 185 335)" stroke="#A0E1FD" stroke-width="2"/>
<circle cx="185" cy="365" r="4" transform="rotate(90 185 365)" stroke="#A0E1FD" stroke-width="2"/>
<circle cx="155" cy="305" r="4" transform="rotate(90 155 305)" stroke="#A0E1FD" stroke-width="2"/>
<circle cx="155" cy="335" r="4" transform="rotate(90 155 335)" stroke="#A0E1FD" stroke-width="2"/>
<circle cx="155" cy="365" r="4" transform="rotate(90 155 365)" stroke="#A0E1FD" stroke-width="2"/>
<circle cx="125" cy="305" r="4" transform="rotate(90 125 305)" stroke="#A0E1FD" stroke-width="2"/>
<circle cx="125" cy="335" r="4" transform="rotate(90 125 335)" stroke="#A0E1FD" stroke-width="2"/>
<circle cx="125" cy="365" r="4" transform="rotate(90 125 365)" stroke="#A0E1FD" stroke-width="2"/>
<circle cx="95" cy="305" r="4" transform="rotate(90 95 305)" stroke="#A0E1FD" stroke-width="2"/>
<circle cx="95" cy="335" r="4" transform="rotate(90 95 335)" stroke="#A0E1FD" stroke-width="2"/>
<circle cx="95" cy="365" r="4" transform="rotate(90 95 365)" stroke="#A0E1FD" stroke-width="2"/>
<circle cx="65" cy="215" r="4" transform="rotate(90 65 215)" stroke="#A0E1FD" stroke-width="2"/>
<circle cx="65" cy="245" r="4" transform="rotate(90 65 245)" stroke="#A0E1FD" stroke-width="2"/>
<circle cx="65" cy="275" r="4" transform="rotate(90 65 275)" stroke="#A0E1FD" stroke-width="2"/>
<circle cx="65" cy="305" r="4" transform="rotate(90 65 305)" stroke="#A0E1FD" stroke-width="2"/>
<circle cx="65" cy="335" r="4" transform="rotate(90 65 335)" stroke="#A0E1FD" stroke-width="2"/>
<circle cx="65" cy="365" r="4" transform="rotate(90 65 365)" stroke="#A0E1FD" stroke-width="2"/>
<circle cx="35" cy="215" r="4" transform="rotate(90 35 215)" stroke="#A0E1FD" stroke-width="2"/>
<circle cx="35" cy="245" r="4" transform="rotate(90 35 245)" stroke="#A0E1FD" stroke-width="2"/>
<circle cx="35" cy="275" r="4" transform="rotate(90 35 275)" stroke="#A0E1FD" stroke-width="2"/>
<circle cx="35" cy="305" r="4" transform="rotate(90 35 305)" stroke="#A0E1FD" stroke-width="2"/>
<circle cx="35" cy="335" r="4" transform="rotate(90 35 335)" stroke="#A0E1FD" stroke-width="2"/>
<circle cx="35" cy="365" r="4" transform="rotate(90 35 365)" stroke="#A0E1FD" stroke-width="2"/>
<circle cx="5" cy="215" r="4" transform="rotate(90 5 215)" stroke="#A0E1FD" stroke-width="2"/>
<circle cx="5" cy="245" r="4" transform="rotate(90 5 245)" stroke="#A0E1FD" stroke-width="2"/>
<circle cx="5" cy="275" r="4" transform="rotate(90 5 275)" stroke="#A0E1FD" stroke-width="2"/>
<circle cx="5" cy="305" r="4" transform="rotate(90 5 305)" stroke="#A0E1FD" stroke-width="2"/>
<circle cx="5" cy="335" r="4" transform="rotate(90 5 335)" stroke="#A0E1FD" stroke-width="2"/>
<circle cx="5" cy="365" r="4" transform="rotate(90 5 365)" stroke="#A0E1FD" stroke-width="2"/>
</svg>
