<svg width="37" height="43" viewBox="0 0 37 43" fill="none" xmlns="http://www.w3.org/2000/svg">
<path d="M18.9553 0.0382896C18.8039 -0.00929043 18.6361 -0.00322317 18.4752 0.00805979L18.4146 0.0132755L18.3247 0.00805979C18.1663 -0.00322317 18.0019 -0.00929043 17.8548 0.0374381C8.12093 0.481306 0.526855 8.40248 0.526855 18.1684C0.526855 24.3228 3.43232 29.9727 8.1106 32.9128L8.35638 33.066C8.6756 33.2641 8.97673 33.4501 9.24496 33.6603C11.0196 35.0429 12.2551 38.9175 12.2551 41.5305C12.2551 42.009 12.6427 42.3958 13.1203 42.3958H23.6796C24.1581 42.3958 24.5449 42.0091 24.5449 41.5305C24.5449 38.9167 25.7813 35.043 27.555 33.6603C27.8241 33.4501 28.126 33.2624 28.4461 33.0651L28.6892 32.9137C33.3667 29.9762 36.273 24.3263 36.273 18.1693C36.2738 8.40684 28.6857 0.487373 18.9553 0.0382896ZM15.4443 22.0558C16.1451 22.9211 17.2033 23.4861 18.4008 23.4861C19.5723 23.4861 20.6105 22.9445 21.3123 22.1104C22.0123 23.0068 23.0903 23.5952 24.3129 23.5952C24.3978 23.5952 24.4808 23.5926 24.5638 23.5874C22.8558 27.7025 20.6227 34.254 20.4332 40.6654H16.3692C16.1789 34.2315 13.9327 27.6212 12.223 23.4776C12.3113 23.4836 12.3995 23.4871 12.4896 23.4871C13.6861 23.4861 14.7435 22.9211 15.4443 22.0558ZM27.7703 31.4479L27.5358 31.5933C27.1915 31.8062 26.8333 32.0277 26.4915 32.295C24.4262 33.9035 23.0773 37.6879 22.8489 40.6653H22.1663C22.3904 33.6629 25.2396 26.2956 26.8861 22.5967C27.6518 21.8975 28.1329 20.8904 28.1329 19.7743C28.1329 19.3772 27.8621 19.0302 27.4752 18.9342C27.0876 18.8363 26.6879 19.019 26.5018 19.3703C26.4404 19.487 26.0364 20.2614 25.4627 21.5195C25.1322 21.7374 24.7368 21.8655 24.312 21.8655C23.1595 21.8655 22.2215 20.9276 22.2215 19.7742C22.2215 19.7612 22.2146 19.7509 22.2138 19.7379C22.2146 19.7128 22.2215 19.6903 22.2215 19.6652C22.2215 19.1876 21.8348 18.7999 21.3563 18.7999C20.8777 18.7999 20.491 19.1876 20.491 19.6652C20.491 20.8185 19.5531 21.7565 18.3997 21.7565C17.2472 21.7565 16.3093 20.8186 16.3093 19.6652C16.3093 19.1876 15.9216 18.7999 15.444 18.7999C14.9664 18.7999 14.5787 19.1876 14.5787 19.6652C14.5787 20.8185 13.6408 21.7565 12.4874 21.7565C12.0574 21.7565 11.6577 21.6259 11.3245 21.4026C10.7578 20.1514 10.3598 19.3814 10.2984 19.2646C10.1142 18.9116 9.71097 18.7299 9.32501 18.8251C8.9383 18.9202 8.6657 19.2672 8.6657 19.6652C8.6657 20.7745 9.14076 21.7756 9.89863 22.4746C11.5425 26.1916 14.409 33.6326 14.6332 40.666H13.9506C13.7222 37.6905 12.3724 33.9059 10.3072 32.2957C9.96537 32.0292 9.60975 31.8087 9.26625 31.5958L9.03006 31.4487C4.85185 28.8227 2.25613 23.7335 2.25613 18.1692C2.25613 9.2685 9.2307 2.06028 18.1339 1.75915C18.185 1.75745 18.2343 1.75053 18.2827 1.7401C18.3458 1.74361 18.4298 1.74446 18.5137 1.7401C18.563 1.75053 18.6141 1.75745 18.666 1.7583C27.5692 2.06028 34.543 9.26765 34.543 18.1692C34.5434 23.7361 31.9477 28.8245 27.7703 31.4479Z" fill="white"/>
</svg>
