<svg width="36" height="47" viewBox="0 0 36 47" fill="none" xmlns="http://www.w3.org/2000/svg">
<path d="M0.787598 5.16528C0.787598 2.40386 3.02617 0.165283 5.7876 0.165283H27.0497C29.8112 0.165283 32.0497 2.40386 32.0497 5.16528V40.9636C32.0497 41.2967 32.083 41.629 32.1491 41.9555L32.19 42.1577C32.3213 42.8064 32.5974 43.4172 32.9976 43.9445L33.3266 44.3779C33.3812 44.4499 33.4465 44.5129 33.5203 44.565L35.51 45.9693C35.5959 46.03 35.553 46.1653 35.4478 46.1653H33.409L31.5389 45.9013C31.2007 45.8536 30.8684 45.7713 30.547 45.6558L28.1122 44.781C27.5698 44.5861 26.9978 44.4865 26.4214 44.4865H5.78759C3.02617 44.4865 0.787598 42.2479 0.787598 39.4865V5.16528Z" fill="white"/>
<path d="M6.7876 36.7203C6.7876 36.4677 7.05859 36.3065 7.28357 36.4214C14.778 40.2491 19.1144 40.4544 26.29 36.4473C26.511 36.3238 26.7876 36.481 26.7876 36.7342C26.7876 36.8513 26.7232 36.961 26.6218 37.0195C19.4123 41.1828 15.062 41.245 6.96996 37.019C6.85927 36.9612 6.7876 36.8452 6.7876 36.7203Z" fill="black"/>
</svg>
