<svg width="804" height="827" viewBox="0 0 804 827" fill="none" xmlns="http://www.w3.org/2000/svg">
<path opacity="0.72" d="M640.171 785.506L890.723 522.238C920.656 490.786 932.905 445.411 920.802 402.406L830.642 42.0723C819.644 0.228154 787.604 -33.4376 747.781 -44.9943L405.961 -140.894C363.924 -152.447 320.741 -139.577 290.808 -108.124L39.1468 156.309C9.2136 187.761 -3.03489 233.136 9.06841 276.141L100.336 635.309C111.335 677.154 143.375 710.819 183.198 722.376L527.231 818.272C567.054 829.829 610.238 816.959 640.171 785.506Z" fill="#A422C2"/>
<path opacity="0.72" d="M682.171 744.506L932.723 481.238C962.656 449.786 974.905 404.411 962.802 361.406L872.642 1.07235C861.644 -40.7718 829.604 -74.4376 789.781 -85.9943L447.961 -181.894C405.924 -193.447 362.741 -180.577 332.808 -149.124L81.1468 115.309C51.2136 146.761 38.9651 192.136 51.0684 235.141L142.336 594.309C153.335 636.154 185.375 669.819 225.198 681.376L569.231 777.272C609.054 788.829 652.238 775.959 682.171 744.506Z" fill="#09B2FB"/>
</svg>
