<svg width="167" height="166" viewBox="0 0 167 166" fill="none" xmlns="http://www.w3.org/2000/svg">
<path d="M55.214 25.8636C58.7509 -8.1306 108.249 -8.1306 111.786 25.8636C113.144 38.9151 123.255 49.3431 136.259 51.1025L138.899 51.4598C175.646 56.4319 175.646 109.568 138.899 114.54L136.259 114.897C123.255 116.657 113.144 127.085 111.786 140.136C108.249 174.131 58.7509 174.131 55.214 140.136C53.856 127.085 43.7446 116.657 30.7412 114.897L28.1006 114.54C-8.64601 109.568 -8.64601 56.4319 28.1006 51.4598L30.7412 51.1025C43.7446 49.3431 53.856 38.9151 55.214 25.8636Z" fill="#801B98"/>
</svg>
