<svg width="53" height="53" viewBox="0 0 53 53" fill="none" xmlns="http://www.w3.org/2000/svg">
<g clip-path="url(#clip0)">
<path d="M32.9208 7.12559L31.1328 6.63599C31.0213 6.59748 30.9026 6.58396 30.7852 6.59641C30.6678 6.60885 30.5546 6.64694 30.4536 6.70799C30.3457 6.76776 30.2506 6.84824 30.1738 6.94481C30.097 7.04139 30.04 7.15216 30.006 7.27079L19.2444 44.5188C19.2055 44.6351 19.1917 44.7585 19.2041 44.8805C19.2166 45.0026 19.2548 45.1207 19.3164 45.2268C19.3762 45.3346 19.4567 45.4295 19.5533 45.5061C19.6499 45.5827 19.7606 45.6395 19.8792 45.6732L21.6672 46.1652C21.7788 46.2038 21.8975 46.2173 22.0148 46.2049C22.1322 46.1925 22.2454 46.1543 22.3464 46.0932C22.4542 46.0331 22.5491 45.9524 22.6257 45.8556C22.7023 45.7588 22.7591 45.6479 22.7928 45.5292L33.5568 8.28119C33.5955 8.16474 33.609 8.04138 33.5964 7.91931C33.5838 7.79725 33.5453 7.67926 33.4836 7.57319C33.424 7.46516 33.3435 7.37 33.2469 7.29319C33.1503 7.21637 33.0395 7.15941 32.9208 7.12559Z" fill="white"/>
<path d="M16.7928 14.3976C16.7926 14.2732 16.7669 14.1501 16.7174 14.036C16.6679 13.9219 16.5955 13.8191 16.5048 13.734L15.0612 12.2904C14.9761 12.1997 14.8733 12.1273 14.7592 12.0778C14.6451 12.0282 14.522 12.0026 14.3976 12.0024C14.2732 12.0026 14.1501 12.0282 14.036 12.0778C13.9219 12.1273 13.8191 12.1997 13.734 12.2904L0.288 25.7364C0.197272 25.8215 0.124919 25.9243 0.0753905 26.0384C0.025862 26.1525 0.000205799 26.2756 0 26.4C0 26.6496 0.096 26.8716 0.288 27.0636L13.734 40.5084C13.926 40.7004 14.1468 40.7964 14.3976 40.7964C14.522 40.7962 14.6451 40.7705 14.7592 40.721C14.8733 40.6715 14.9761 40.5991 15.0612 40.5084L16.5036 39.0672C16.5945 38.9819 16.6669 38.879 16.7164 38.7646C16.766 38.6503 16.7916 38.527 16.7916 38.4024C16.7912 38.2782 16.7655 38.1554 16.716 38.0415C16.6664 37.9276 16.5942 37.825 16.5036 37.74L5.1648 26.4L16.5048 15.06C16.6968 14.868 16.7928 14.6472 16.7928 14.3976Z" fill="white"/>
<path d="M52.5119 25.7364L39.0659 12.2904C38.9808 12.1997 38.878 12.1273 38.7639 12.0778C38.6498 12.0282 38.5267 12.0026 38.4023 12.0024C38.2779 12.0027 38.1549 12.0284 38.0408 12.078C37.9267 12.1275 37.8239 12.1998 37.7387 12.2904L36.2963 13.7328C36.2056 13.8179 36.1332 13.9207 36.0837 14.0348C36.0342 14.1489 36.0085 14.272 36.0083 14.3964C36.0083 14.6472 36.1043 14.868 36.2963 15.06L47.6363 26.4L36.2963 37.74C36.2057 37.825 36.1335 37.9276 36.0839 38.0415C36.0344 38.1554 36.0087 38.2782 36.0083 38.4024C36.0083 38.6532 36.1043 38.874 36.2963 39.0672L37.7387 40.5084C37.9307 40.7004 38.1527 40.7964 38.4023 40.7964C38.5267 40.7962 38.6498 40.7705 38.7639 40.721C38.878 40.6715 38.9808 40.5991 39.0659 40.5084L52.5119 27.0636C52.6026 26.9785 52.675 26.8757 52.7245 26.7616C52.774 26.6474 52.7997 26.5244 52.7999 26.4C52.7997 26.2756 52.774 26.1525 52.7245 26.0384C52.675 25.9243 52.6026 25.8215 52.5119 25.7364Z" fill="white"/>
</g>
<defs>
<clipPath id="clip0">
<rect width="52.8" height="52.8" fill="white"/>
</clipPath>
</defs>
</svg>
